<svg width="34" height="45" viewBox="0 0 34 45" fill="none" xmlns="http://www.w3.org/2000/svg">
<path d="M3.19082 6.33927H30.1651C31.9242 6.33927 33.3559 4.917 33.3559 3.16963C33.3559 1.42227 31.9242 0 30.1651 0H3.19082C1.43178 0 0 1.42227 0 3.16963C0 4.917 1.43178 6.33927 3.19082 6.33927Z" fill="white"/>
<path d="M3.19079 0.892017H30.1651C31.4312 0.892017 32.4579 1.91189 32.4579 3.16964C32.4579 4.42738 31.4312 5.44725 30.1651 5.44725H3.19079C1.92464 5.44725 0.897949 4.42738 0.897949 3.16964C0.897949 1.91189 1.92464 0.892017 3.19079 0.892017Z" fill="#A0CA28"/>
<path d="M30.1651 38.5589H3.19082C1.43178 38.5589 0 39.9812 0 41.7286C0 43.4759 1.43178 44.8982 3.19082 44.8982H30.1651C31.9242 44.8982 33.3559 43.4759 33.3559 41.7286C33.3559 39.9812 31.9242 38.5589 30.1651 38.5589Z" fill="white"/>
<path d="M3.19079 39.4509H30.1651C31.4312 39.4509 32.4579 40.4708 32.4579 41.7286C32.4579 42.9863 31.4312 44.0062 30.1651 44.0062H3.19079C1.92464 44.0062 0.897949 42.9863 0.897949 41.7286C0.897949 40.4708 1.92464 39.4509 3.19079 39.4509Z" fill="#A0CA28"/>
<path d="M27.133 8.89143C25.6354 7.25507 22.9703 7.20552 17.6593 7.10739C16.5578 7.08658 15.4882 7.06874 14.5144 7.06874C10.66 7.06874 7.36546 7.263 6.07935 9.64568C5.31208 11.0729 5.44179 13.1077 6.39464 14.5934C7.59993 16.4746 9.63934 16.7095 11.4373 16.9166C13.0437 17.102 14.5603 17.2774 15.6548 18.443C16.7773 19.6412 16.8601 21.2677 16.9339 22.7028C17.0068 24.1211 17.0816 25.585 18.3098 26.2273L18.3268 26.2451L18.4914 26.3145C18.7818 26.4374 19.0991 26.4998 19.4323 26.4998C21.791 26.4998 24.5069 23.2727 25.0277 22.6255C26.5543 20.7255 27.7855 18.1753 28.3223 15.8036C28.9878 12.8599 28.5767 10.4703 27.132 8.89143H27.133Z" fill="white"/>
<path d="M18.8436 25.4909C16.9558 24.695 18.8436 20.5332 16.3163 17.8354C13.6243 14.9661 9.07058 17.101 7.15589 14.1137C6.40358 12.9402 6.23596 11.2543 6.87552 10.0649C8.06285 7.86462 11.7306 7.8894 17.6463 7.99941C22.7069 8.09357 25.2372 8.14114 26.4724 9.49205C29.1863 12.4585 27.0821 18.6451 24.3302 22.0695C23.1599 23.5245 20.4969 26.1906 18.8466 25.4939L18.8436 25.4909Z" fill="#EB0904"/>
<path d="M22.696 28.7705C21.0876 28.4821 19.4254 28.1848 18.0325 26.9766C16.2366 25.4185 15.9642 23.241 15.7467 21.4917C15.5431 19.8573 15.3506 18.3141 13.8619 17.9157C13.6753 17.8651 13.4788 17.8403 13.2782 17.8403C10.9774 17.8403 8.83222 21.0229 8.01706 22.3916C6.3109 25.255 5.24729 28.6308 5.09962 31.6507C4.98189 34.0324 5.48575 35.0652 5.93873 35.6995C7.29668 37.5995 9.47478 37.7194 16.8193 37.8404C18.4626 37.8681 19.6229 37.88 20.5848 37.88C25.1395 37.88 26.8138 37.6263 27.7447 36.1247C28.6646 34.642 28.3762 32.7033 27.6818 31.4406C26.5992 29.4683 24.6147 29.1125 22.696 28.7695V28.7705Z" fill="white"/>
<path d="M26.8946 31.8688C27.5042 32.9779 27.6608 34.5617 26.9814 35.6579C26.1772 36.9553 24.5079 37.0782 16.8362 36.9493C9.56356 36.8284 7.72969 36.6629 6.67207 35.1831C6.31088 34.6767 5.89282 33.8144 5.99758 31.6944C6.32086 25.0835 11.134 18.106 13.6284 18.776C15.6918 19.328 13.7821 24.473 17.4428 27.6476C20.7584 30.5228 25.2193 28.8161 26.8946 31.8678V31.8688Z" fill="#F0E514"/>
</svg>
