<svg width="502" height="194" viewBox="0 0 502 194" fill="none" xmlns="http://www.w3.org/2000/svg">
<path d="M474.919 125.106C474.986 124.24 475.03 123.352 475.03 122.486C475.03 109.323 467.261 98.069 455.962 93.0967C456.451 90.8992 456.717 88.6128 456.717 86.3042C456.717 69.3453 442.91 55.5384 425.951 55.5384C422.666 55.5384 419.469 56.0489 416.428 57.0478C408.304 37.0034 388.814 23.4407 366.284 23.4407C348.326 23.4407 331.966 32.1199 321.911 46.5262C317.027 45.1055 311.944 44.373 306.772 44.373C296.162 44.373 285.795 47.5028 277.005 53.2964C271.545 50.4551 265.64 48.5683 259.536 47.7248C256.339 20.8879 233.454 0 205.751 0C184.308 0 164.952 12.8302 156.339 32.0089C155.296 31.9423 154.252 31.9201 153.231 31.9201C131.345 31.9201 112.188 45.3719 104.419 65.0611C100.046 63.9069 95.5177 63.3297 90.9006 63.3297C71.9216 63.3297 54.6741 73.2964 45.1291 89.2565C43.0647 88.9901 40.9782 88.857 38.8694 88.857C36.5609 88.857 34.2301 89.0124 31.8993 89.3453C9.67955 92.4752 -6.30269 109.9 -3.72777 128.213C-1.95196 140.777 8.14791 150.877 22.1102 154.628C29.2578 175.561 49.2801 190.189 71.7884 190.189C88.4366 190.189 103.709 182.464 113.52 169.545C119.558 172.475 126.217 174.029 132.965 174.029C140.978 174.029 148.681 171.92 155.429 167.947C164.907 181.088 180.246 189.124 196.872 189.124C212.122 189.124 226.284 182.442 235.94 170.966C239.114 171.676 242.377 172.031 245.662 172.031C250.945 172.031 256.162 171.099 261.067 169.279C271.944 184.24 289.347 193.23 308.193 193.23C325.13 193.23 340.89 186.016 351.855 173.563C356.85 176.271 362.444 177.692 368.282 177.692C373.21 177.692 378.026 176.648 382.466 174.651C390.657 185.217 403.443 191.654 417.116 191.654C430.79 191.654 442.999 185.527 451.256 175.317C454.741 175.938 458.382 176.249 462.111 176.249C484.863 176.249 502 164.95 502 149.967C502 138.158 490.901 128.413 474.875 124.995L474.919 125.106Z" fill="white"/>
<path d="M463.754 132.697C465.263 129.612 466.151 126.149 466.151 122.486C466.151 109.878 456.095 99.6228 443.576 99.2454C446.24 95.6272 447.838 91.1433 447.838 86.3043C447.838 74.2288 438.049 64.4174 425.951 64.4174C420.158 64.4174 414.897 66.6816 410.968 70.3886C407.505 48.8125 388.815 32.3419 366.262 32.3419C348.504 32.3419 333.143 42.575 325.729 57.4474C319.958 54.7837 313.542 53.2743 306.75 53.2743C295.607 53.2743 285.418 57.3142 277.516 63.9735C270.257 59.0234 261.467 56.1155 252.011 56.1155C251.656 56.1155 251.3 56.1155 250.945 56.1377C250.967 55.494 250.99 54.8281 250.99 54.1843C250.99 29.1898 230.723 8.90125 205.707 8.90125C185.018 8.90125 167.571 22.7969 162.177 41.7315C159.269 41.1322 156.273 40.7992 153.187 40.7992C131.744 40.7992 113.919 56.2709 110.279 76.6705C104.419 73.8292 97.8263 72.2088 90.8784 72.2088C72.4544 72.2088 56.6719 83.4186 49.9238 99.3564C44.8628 97.8026 39.0914 97.2921 33.1203 98.1356C15.7174 100.577 3.1535 113.496 5.0625 126.97C6.54974 137.559 16.5386 145.35 29.1913 147.015C33.4532 166.637 50.9005 181.332 71.7885 181.332C88.814 181.332 103.553 171.565 110.723 157.337C116.805 162.242 124.552 165.172 132.965 165.172C142.776 165.172 151.655 161.199 158.07 154.784C164.552 169.789 179.491 180.289 196.872 180.289C211.878 180.289 225.018 172.475 232.521 160.688C236.583 162.309 241.023 163.219 245.662 163.219C252.521 163.219 258.936 161.266 264.375 157.891C272.632 173.652 289.147 184.418 308.193 184.418C325.818 184.418 341.289 175.183 350.035 161.288C354.697 165.971 361.156 168.879 368.282 168.879C374.808 168.879 380.779 166.438 385.307 162.42C390.834 174.473 402.977 182.842 417.116 182.842C430.058 182.842 441.356 175.805 447.394 165.35C451.767 166.682 456.761 167.414 462.089 167.414C479.225 167.414 493.099 159.623 493.099 150.011C493.099 140.4 480.069 133.097 463.687 132.631L463.754 132.697Z" fill="#B6DDE3"/>
</svg>
