<svg width="76" height="64" viewBox="0 0 76 64" fill="none" xmlns="http://www.w3.org/2000/svg">
<path d="M71.971 0.566102H71.981C68.651 -0.653898 59.401 -0.0239015 37.951 3.6561C25.961 5.7161 24.131 5.48609 15.641 9.11609C14.981 9.39609 3.71099 14.4061 0.730995 25.2561C-3.23901 39.6761 9.55103 56.7061 24.831 61.6061C41.101 66.8361 55.461 56.7761 57.511 55.2861C78.381 40.1661 78.811 3.0461 71.971 0.566102ZM47.351 14.9261C47.131 15.0461 46.851 15.1061 46.601 15.1061C45.671 15.1261 44.741 15.0961 43.811 15.1261C41.081 15.2161 38.891 17.7061 39.011 20.4361C39.091 22.1861 39.011 23.9461 39.001 25.7061C39.001 26.0761 38.981 26.0761 39.361 26.0761H45.511C46.571 26.0761 46.841 26.3461 46.851 27.4161C46.861 29.5061 46.861 31.5861 46.861 33.6761C46.861 34.5261 46.571 34.8061 45.721 34.8061H39.291C39.101 34.8061 39.011 34.8361 39.011 35.0661C39.031 39.1861 39.041 43.3161 39.051 47.4361C39.061 50.0061 39.051 52.5661 39.051 55.1361C39.051 55.5161 39.021 55.8861 38.991 56.2561C38.961 56.6361 38.811 56.9461 38.391 57.0361C38.311 57.0561 38.241 57.1061 38.161 57.1361H31.111C31.111 57.1361 31.011 57.0361 30.951 57.0261C30.441 56.9361 30.331 56.5561 30.321 56.1261C30.311 55.0161 30.301 53.9061 30.301 52.7961V35.0661C30.301 34.9861 30.291 34.9061 30.281 34.7961H25.751C25.111 34.7961 24.751 34.4761 24.741 33.8461C24.741 31.5761 24.751 29.2961 24.771 27.0261C24.781 26.4261 25.031 26.1861 25.621 26.1161C25.861 26.0861 26.111 26.0761 26.351 26.0761H30.291V25.6361C30.291 23.7461 30.241 21.8561 30.311 19.9761C30.491 15.5561 32.311 11.9461 35.831 9.22611C37.711 7.77611 39.851 6.89611 42.201 6.57611C43.671 6.37611 45.161 6.35609 46.641 6.39609C47.331 6.41609 47.681 6.74611 47.691 7.44611C47.711 8.48611 47.701 9.53611 47.701 10.5761C47.701 11.7361 47.711 12.8861 47.701 14.0461C47.711 14.3861 47.701 14.7461 47.351 14.9261Z" fill="#EF7C1A"/>
</svg>
