<svg width="77" height="64" viewBox="0 0 77 64" fill="none" xmlns="http://www.w3.org/2000/svg">
<path d="M49.0111 16.0661C47.3611 16.0661 46.0011 17.3961 45.9811 19.0561C45.9511 20.6961 47.3411 22.0961 49.0111 22.0961C50.6511 22.1061 52.0111 20.7661 52.0411 19.1061C52.0711 17.4661 50.6611 16.0661 49.0111 16.0661Z" fill="#EF7C1A"/>
<path d="M36.5111 19.5461C29.9411 19.5361 24.5511 24.8961 24.5011 31.5061C24.4511 38.0761 29.851 43.5161 36.471 43.5561C43.041 43.5861 48.4811 38.1761 48.5011 31.5661C48.5311 24.9861 43.1111 19.5461 36.5111 19.5461ZM36.5111 39.4161C32.1911 39.4361 28.6511 35.9161 28.6311 31.5661C28.6111 27.2461 32.1211 23.7061 36.4811 23.6861C40.8011 23.6661 44.3311 27.1861 44.3611 31.5361C44.3811 35.8561 40.8611 39.3961 36.5111 39.4161Z" fill="#EF7C1A"/>
<path d="M72.5911 0.566102C69.2611 -0.653898 60.0111 -0.0239015 38.5611 3.6561C26.5711 5.7161 24.7411 5.48612 16.2511 9.11612C15.5911 9.39612 4.32111 14.4061 1.3411 25.2561C-2.6289 39.6761 10.1611 56.7061 25.4411 61.6061C41.7111 66.8361 56.0711 56.7761 58.1211 55.2861C78.9911 40.1661 79.4211 3.0461 72.5811 0.566102H72.5911ZM55.6611 41.7261C55.6611 45.7461 53.4111 48.9361 49.7111 50.2461C48.7011 50.6061 47.6511 50.7061 46.5811 50.7061H26.3911C24.4411 50.7161 22.6411 50.2561 21.0511 49.0961C18.5711 47.2961 17.3511 44.8261 17.3511 41.7761C17.3511 34.9561 17.3311 28.1361 17.3511 21.3161C17.3711 17.3361 19.6011 14.1461 23.2911 12.8961C24.2411 12.5661 25.3011 12.4161 26.3211 12.4161C33.1111 12.3761 39.9011 12.3961 46.6911 12.3961C50.7011 12.3961 53.9411 14.6461 55.1811 18.3661C55.5011 19.3161 55.6411 20.3761 55.6411 21.3961C55.6811 28.1761 55.6611 34.9461 55.6611 41.7261Z" fill="#EF7C1A"/>
<path d="M36.4911 23.6861C32.1311 23.7061 28.6211 27.2461 28.6411 31.5661C28.6611 35.9161 32.2011 39.4361 36.5211 39.4161C40.8711 39.3961 44.3911 35.8561 44.3711 31.5361C44.3411 27.1861 40.8111 23.6661 36.4911 23.6861Z" fill="white"/>
<path d="M55.6411 21.3961C55.6411 20.3761 55.5011 19.3161 55.1811 18.3661C53.9411 14.6461 50.701 12.4061 46.691 12.3961C39.901 12.3961 33.1111 12.3761 26.3211 12.4161C25.3011 12.4161 24.2411 12.5661 23.2911 12.8961C19.6011 14.1461 17.3711 17.3361 17.3511 21.3161C17.3311 28.1361 17.3511 34.9561 17.3511 41.7761C17.3511 44.8261 18.5711 47.2961 21.0511 49.0961C22.6411 50.2561 24.4411 50.7161 26.3911 50.7061H46.5811C47.6511 50.7061 48.7011 50.6061 49.7111 50.2461C53.4111 48.9361 55.661 45.7461 55.661 41.7261C55.661 34.9461 55.6811 28.1761 55.6411 21.3961ZM36.471 43.5561C29.851 43.5161 24.4511 38.0761 24.5011 31.5061C24.5511 24.8961 29.9411 19.5361 36.5111 19.5461C43.1111 19.5461 48.5311 24.9861 48.5011 31.5661C48.4811 38.1761 43.041 43.5861 36.471 43.5561ZM49.0111 22.1061C47.3411 22.0961 45.9511 20.6961 45.9811 19.0561C46.0011 17.3961 47.3611 16.0661 49.0111 16.0661C50.6611 16.0661 52.0711 17.4661 52.0411 19.1061C52.0111 20.7661 50.6511 22.1061 49.0111 22.1061Z" fill="white"/>
</svg>
