<svg width="510" height="283" viewBox="0 0 510 283" fill="none" xmlns="http://www.w3.org/2000/svg">
<mask id="mask0_215_4" style="mask-type:luminance" maskUnits="userSpaceOnUse" x="2" y="2" width="506" height="279">
<path d="M499.161 207.853C502.766 204.309 505.215 199.57 505.955 194.145C506.362 191.228 506.794 186.134 506.794 183.067C506.794 152.762 487.951 133.172 458.798 133.172C448.758 133.172 439.921 135.7 432.695 140.26C431.822 136.733 431.085 133.65 430.551 131.182C428.149 119.782 418.516 112.143 406.51 112.143H398.046C393.654 112.143 389.569 113.239 386.023 115.227C386.292 113.569 386.461 111.914 386.523 110.265C386.6 110.214 386.676 110.172 386.752 110.121C389.032 108.706 391.035 107.475 392.882 106.374C395.36 104.891 397.301 103.652 398.835 102.576C404.058 98.8624 407.603 93.3699 408.807 87.1235C409.747 82.2495 409.298 77.2908 407.485 72.7641C405.917 68.8559 403.456 65.4814 400.253 62.8467C400.032 60.2092 399.439 57.6084 398.49 55.0895C396.558 49.9953 393.207 45.6041 388.78 42.3736C384.464 39.2278 379.402 37.5674 374.144 37.5674C370.667 37.5674 367.257 38.2875 364.011 39.7192L363.664 39.8717L363.325 40.0326C361.486 40.9222 359.678 41.9133 357.906 43.0005C355.53 37.4996 351.222 33.1 345.796 30.6404C344.406 26.1392 341.903 22.0276 338.493 18.6362C334.744 14.9228 330.089 12.2881 325.026 11.0145C322.956 10.4893 320.845 10.2267 318.76 10.2267C311.822 10.2267 305.379 13.0505 300.664 18.1194C298.288 20.6637 295.745 23.8744 292.878 27.9521C292.005 29.1805 291.124 30.488 290.223 31.8519C289.46 31.979 288.706 32.106 287.96 32.2331C282.914 33.0887 277.962 34.368 273.239 36.0566C268.202 37.8272 264.038 40.9306 261.111 44.9321C257.015 47.2194 253.114 50.0178 249.469 53.2653C246.568 51.9522 243.424 51.1474 240.167 50.865C241.624 49.9162 243 48.8064 244.263 47.5498C247.952 43.8618 250.571 39.2758 251.837 34.2663C253.176 28.9094 252.93 23.417 251.116 18.3566C247.791 9.12535 239.226 2.89589 229.288 2.4723L228.618 2.4469L227.957 2.45536C224.191 2.52313 220.07 2.59092 215.584 2.64175C210.75 2.70105 205.705 2.87047 200.583 3.14156C195.267 3.4296 189.814 3.90402 184.376 4.54786C178.534 5.24253 172.794 6.27606 167.305 7.62587C161.463 9.07452 155.85 10.9835 150.615 13.3047C144.62 15.9591 139.185 19.3478 134.445 23.3916C129.23 27.842 124.939 33.2158 121.681 39.369C118.289 45.7764 116.289 53.0507 115.729 60.9603L115.661 61.8668L115.678 62.7648C115.755 69.0366 118.195 74.8369 122.3 79.1433C119.992 81.9417 117.848 84.8475 115.899 87.8493C112.743 92.6809 110.082 97.7243 107.994 102.827C105.305 109.404 103.703 115.365 103.11 121.052C102.432 127.561 102.856 133.277 104.415 138.515C104.992 140.45 105.692 142.198 106.475 143.79C104.511 143.273 102.438 142.994 100.285 142.994C99.8868 142.994 99.1833 142.985 98.333 142.977C97.7737 142.968 97.155 142.96 96.5109 142.951C94.8159 137.408 92.2876 132.509 88.9287 128.313C83.0866 120.987 71.8828 112.276 51.735 112.276C40.1244 112.276 19.163 117.09 9.17387 149.336C4.7556 163.602 2.60297 182.633 2.60297 207.519C2.60297 266.103 36.2852 272.426 50.7604 272.426C62.0462 272.426 71.4025 269.924 78.7277 264.982C87.115 274.798 99.4856 280.307 114.667 280.307C135.425 280.307 146.442 271.093 152.03 263.361C153.513 261.311 154.762 259.182 155.804 257.022C159.901 260.727 165.294 262.946 171.22 262.946H178.896C179.125 262.946 179.362 262.929 179.599 262.929C181.806 264.158 184.458 265.149 187.639 265.685C189.588 266.007 192.083 266.202 194.295 266.202C195.829 266.202 197.23 266.109 198.569 265.923C207.677 264.618 214.578 258.939 217.547 250.318L220.635 262.441L220.711 262.737C223.663 273.07 232.407 279.751 242.997 279.751C243.972 279.751 244.949 279.7 245.992 279.582L246.568 279.514L247.153 279.421C250.842 278.802 257.142 277.337 259.721 276.563C270.193 273.426 276.691 264.754 276.818 254.548C277.199 254.557 277.589 254.565 277.971 254.565C285.833 254.565 292.997 253.227 299.308 250.75C303.023 257.14 309.704 261.455 317.998 262.218L318.167 262.226C319.718 262.362 321.357 262.421 323.026 262.421C324.696 262.421 326.275 262.362 327.86 262.243L328.377 262.201L328.885 262.133C332.575 261.676 335.934 260.506 338.84 258.767C339.951 261.506 341.072 264.081 342.199 266.397L342.31 266.634C346.414 274.832 354.649 279.926 363.799 279.926H363.808C366.003 279.926 368.251 279.63 370.489 279.054C373.983 278.181 377.376 276.611 381.402 274.671C381.791 274.485 382.13 274.315 382.41 274.188C394.221 269.043 399.642 256.124 395.029 243.798L394.919 243.501L394.639 242.815C394.233 241.824 393.817 240.799 393.385 239.745C394.936 237.729 396.193 235.414 397.083 232.83L400.162 244.953L400.247 245.249C403.199 255.582 411.942 262.263 422.525 262.263H422.533C422.847 262.263 423.169 262.246 423.491 262.237C424.737 263.915 426.002 265.375 427.223 266.612C433.107 272.604 443.811 279.751 461.354 279.751C487.533 279.751 507.274 259.95 507.274 233.688C507.274 222.932 503.67 214.395 499.167 207.85L499.161 207.853Z" fill="white"/>
</mask>
<g mask="url(#mask0_215_4)">
<path d="M208.157 2.4469L2.59991 4.92908V2.4469H208.157Z" fill="#F2950F"/>
<path d="M436.551 2.4469L2.59991 7.68801V4.92908L208.157 2.4469H436.551Z" fill="#F29410"/>
<path d="M505.539 2.4469L505.565 4.37278L2.59991 10.4441V7.68801L436.551 2.4469H505.539Z" fill="#F19310"/>
<path d="M505.565 4.3728L505.596 7.12891L2.6001 13.203V10.4441L505.565 4.3728Z" fill="#F19211"/>
<path d="M505.596 7.12891L505.63 9.88499L2.6001 15.9591V13.203L505.596 7.12891Z" fill="#F19112"/>
<path d="M505.63 9.88501L505.664 12.6439L2.6001 18.7181V15.9592L505.63 9.88501Z" fill="#F19012"/>
<path d="M505.664 12.6439L505.698 15.4L2.6001 21.4742V18.7181L505.664 12.6439Z" fill="#F18F13"/>
<path d="M505.698 15.4L505.732 18.1561L2.6001 24.2303V21.4742L505.698 15.4Z" fill="#F18E13"/>
<path d="M505.732 18.1561L505.763 20.915L2.6001 26.9892V24.2303L505.732 18.1561Z" fill="#F18D14"/>
<path d="M505.763 20.915L505.797 23.6711L2.6001 29.7453V26.9892L505.763 20.915Z" fill="#F08C15"/>
<path d="M505.797 23.6711L505.831 26.4272L2.6001 32.5042V29.7453L505.797 23.6711Z" fill="#F08B15"/>
<path d="M505.831 26.4272L505.865 29.1862L2.6001 35.2603V32.5042L505.831 26.4272Z" fill="#F08A16"/>
<path d="M505.865 29.1862L505.898 31.9423L2.6001 38.0192V35.2603L505.865 29.1862Z" fill="#F08916"/>
<path d="M505.898 31.9423L505.929 34.6983L2.6001 40.7753V38.0192L505.898 31.9423Z" fill="#F08817"/>
<path d="M505.929 34.6984L505.963 37.4573L2.6001 43.5343V40.7753L505.929 34.6984Z" fill="#F08718"/>
<path d="M505.963 37.4573L505.997 40.2134L2.6001 46.2904V43.5343L505.963 37.4573Z" fill="#F08618"/>
<path d="M505.997 40.2134L506.031 42.9695L2.6001 49.0493V46.2904L505.997 40.2134Z" fill="#F08519"/>
<path d="M506.031 42.9695L506.065 45.7284L2.6001 51.8054V49.0493L506.031 42.9695Z" fill="#EF8419"/>
<path d="M506.065 45.7284L506.096 48.4845L2.6001 54.5643V51.8054L506.065 45.7284Z" fill="#EF831A"/>
<path d="M506.096 48.4845L506.13 51.2406L2.6001 57.3204V54.5643L506.096 48.4845Z" fill="#EF821B"/>
<path d="M506.13 51.2406L506.164 53.9995L2.6001 60.0793V57.3204L506.13 51.2406Z" fill="#EF811B"/>
<path d="M506.164 53.9995L506.198 56.7556L2.6001 62.8354V60.0793L506.164 53.9995Z" fill="#EF801C"/>
<path d="M506.198 56.7556L506.232 59.5117L2.6001 65.5915V62.8354L506.198 56.7556Z" fill="#EF7F1C"/>
<path d="M506.232 59.5117L506.263 62.2706L2.6001 68.3504V65.5915L506.232 59.5117Z" fill="#EF7E1D"/>
<path d="M506.263 62.2706L506.297 65.0267L2.6001 71.1065V68.3504L506.263 62.2706Z" fill="#EE7D1E"/>
<path d="M506.297 65.0267L506.331 67.7828L2.6001 73.8655V71.1065L506.297 65.0267Z" fill="#EE7C1E"/>
<path d="M506.331 67.7828L506.364 70.5418L2.6001 76.6216V73.8655L506.331 67.7828Z" fill="#EE7B1F"/>
<path d="M506.365 70.5417L506.398 73.2978L2.6001 79.3805V76.6215L506.365 70.5417Z" fill="#EE7A1F"/>
<path d="M506.398 73.2979L506.429 76.054L2.6001 82.1366V79.3805L506.398 73.2979Z" fill="#EE7920"/>
<path d="M506.429 76.054L506.463 78.8129L2.6001 84.8955V82.1366L506.429 76.054Z" fill="#EE7821"/>
<path d="M506.463 78.8129L506.497 81.569L2.6001 87.6516V84.8955L506.463 78.8129Z" fill="#EE7721"/>
<path d="M506.497 81.569L506.531 84.3251L2.6001 90.4105V87.6516L506.497 81.569Z" fill="#ED7622"/>
<path d="M506.531 84.3251L506.562 87.084L2.6001 93.1666V90.4105L506.531 84.3251Z" fill="#ED7522"/>
<path d="M506.562 87.084L506.596 89.8401L2.6001 95.9255V93.1666L506.562 87.084Z" fill="#ED7423"/>
<path d="M506.596 89.8401L506.63 92.5962L2.6001 98.6816V95.9255L506.596 89.8401Z" fill="#ED7324"/>
<path d="M506.63 92.5962L506.664 95.3523L2.6001 101.441V98.6816L506.63 92.5962Z" fill="#ED7224"/>
<path d="M506.664 95.3523L506.698 98.1112L2.6001 104.197V101.441L506.664 95.3523Z" fill="#ED7125"/>
<path d="M506.698 98.1112L506.729 100.867L2.6001 106.953V104.197L506.698 98.1112Z" fill="#ED7025"/>
<path d="M506.729 100.867L506.763 103.623L2.6001 109.712V106.953L506.729 100.867Z" fill="#EC6F26"/>
<path d="M506.763 103.623L506.797 106.382L2.6001 112.468V109.712L506.763 103.623Z" fill="#EC6E27"/>
<path d="M506.797 106.382L506.831 109.138L2.6001 115.227V112.468L506.797 106.382Z" fill="#EC6D27"/>
<path d="M506.831 109.138L506.865 111.895L2.6001 117.983V115.227L506.831 109.138Z" fill="#EC6C28"/>
<path d="M506.865 111.895L506.896 114.653L2.6001 120.742V117.983L506.865 111.895Z" fill="#EC6A28"/>
<path d="M506.896 114.653L506.93 117.41L2.6001 123.498V120.742L506.896 114.653Z" fill="#EC6929"/>
<path d="M506.929 117.41L506.963 120.166L2.6001 126.257V123.498L506.929 117.41Z" fill="#EC6829"/>
<path d="M506.963 120.166L506.997 122.925L2.6001 129.013V126.257L506.963 120.166Z" fill="#EC672A"/>
<path d="M506.997 122.925L507.031 125.681L2.6001 131.772V129.013L506.997 122.925Z" fill="#EB662B"/>
<path d="M507.031 125.681L507.062 128.437L2.6001 134.528V131.772L507.031 125.681Z" fill="#EB652B"/>
<path d="M507.062 128.437L507.096 131.196L2.6001 137.287V134.528L507.062 128.437Z" fill="#EB642C"/>
<path d="M507.096 131.196L507.13 133.952L2.6001 140.043V137.287L507.096 131.196Z" fill="#EB632C"/>
<path d="M507.13 133.952L507.164 136.708L2.6001 142.802V140.043L507.13 133.952Z" fill="#EB622D"/>
<path d="M507.164 136.708L507.198 139.467L2.6001 145.558V142.802L507.164 136.708Z" fill="#EB612E"/>
<path d="M507.198 139.467L507.229 142.223L2.6001 148.314V145.558L507.198 139.467Z" fill="#EB602E"/>
<path d="M507.229 142.223L507.263 144.979L2.6001 151.073V148.314L507.229 142.223Z" fill="#EA5F2F"/>
<path d="M507.263 144.979L507.266 145.304V147.738L2.6001 153.829V151.073L507.263 144.979Z" fill="#EA5E2F"/>
<path d="M507.266 150.494L2.6001 156.588V153.829L507.266 147.738V150.494Z" fill="#EA5D30"/>
<path d="M507.266 153.253L2.6001 159.344V156.588L507.266 150.494V153.253Z" fill="#EA5C31"/>
<path d="M507.266 156.009L2.6001 162.103V159.344L507.266 153.253V156.009Z" fill="#EA5B31"/>
<path d="M507.266 158.768L2.6001 164.859V162.103L507.266 156.009V158.768Z" fill="#EA5A32"/>
<path d="M507.266 161.524L2.6001 167.618V164.859L507.266 158.768V161.524Z" fill="#EA5932"/>
<path d="M507.266 164.283L2.6001 170.374V167.618L507.266 161.524V164.283Z" fill="#E95833"/>
<path d="M507.266 167.039L2.6001 173.133V170.374L507.266 164.283V167.039Z" fill="#E95734"/>
<path d="M507.266 169.798L2.6001 175.889V173.133L507.266 167.039V169.798Z" fill="#E95634"/>
<path d="M507.266 172.554L2.6001 178.648V175.889L507.266 169.798V172.554Z" fill="#E95535"/>
<path d="M507.266 175.31L2.6001 181.404V178.648L507.266 172.554V175.31Z" fill="#E95435"/>
<path d="M507.266 178.069L2.6001 184.163V181.404L507.266 175.31V178.069Z" fill="#E95336"/>
<path d="M507.266 180.825L2.6001 186.919V184.163L507.266 178.069V180.825Z" fill="#E95237"/>
<path d="M507.266 183.584L2.6001 189.675V186.919L507.266 180.825V183.584Z" fill="#E85137"/>
<path d="M507.266 186.34L2.6001 192.434V189.675L507.266 183.584V186.34Z" fill="#E85038"/>
<path d="M507.266 189.099L2.6001 195.19V192.434L507.266 186.34V189.099Z" fill="#E84F38"/>
<path d="M507.266 191.855L2.6001 197.949V195.19L507.266 189.099V191.855Z" fill="#E84E39"/>
<path d="M507.266 194.614L2.6001 200.705V197.949L507.266 191.855V194.614Z" fill="#E84D3A"/>
<path d="M507.266 197.37L2.6001 203.464V200.705L507.266 194.614V197.37Z" fill="#E84C3A"/>
<path d="M507.266 200.129L2.6001 206.22V203.464L507.266 197.37V200.129Z" fill="#E84B3B"/>
<path d="M507.266 202.885L2.6001 208.979V206.22L507.266 200.129V202.885Z" fill="#E84A3B"/>
<path d="M507.266 205.644L2.6001 211.735V208.979L507.266 202.885V205.644Z" fill="#E7493C"/>
<path d="M507.266 208.4L2.6001 214.494V211.735L507.266 205.644V208.4Z" fill="#E7483D"/>
<path d="M507.266 211.159L2.6001 217.25V214.494L507.266 208.4V211.159Z" fill="#E7473D"/>
<path d="M507.266 213.915L2.6001 220.009V217.25L507.266 211.159V213.915Z" fill="#E7463E"/>
<path d="M507.266 216.672L2.6001 222.765V220.009L507.266 213.915V216.672Z" fill="#E7453E"/>
<path d="M507.266 219.43L2.6001 225.524V222.765L507.266 216.672V219.43Z" fill="#E7443F"/>
<path d="M507.266 222.187L2.6001 228.28V225.524L507.266 219.43V222.187Z" fill="#E74340"/>
<path d="M507.266 224.945L2.6001 231.039V228.28L507.266 222.187V224.945Z" fill="#E64240"/>
<path d="M507.266 227.702L2.6001 233.796V231.039L507.266 224.946V227.702Z" fill="#E64141"/>
<path d="M507.266 230.46L2.6001 236.552V233.795L507.266 227.702V230.46Z" fill="#E64041"/>
<path d="M507.266 233.217L2.6001 239.31V236.552L507.266 230.46V233.217Z" fill="#E63F42"/>
<path d="M507.266 241.152L2.6001 247.246V239.31L507.266 233.217V241.152Z" fill="#E63F42"/>
<path d="M507.266 249.087L2.6001 255.181V247.246L507.266 241.152V249.087Z" fill="#E63E42"/>
<path d="M507.266 257.022L2.6001 263.116V255.181L507.266 249.087V257.022Z" fill="#E63D43"/>
<path d="M507.266 264.957L2.6001 271.051V263.116L507.266 257.022V264.957Z" fill="#E63C43"/>
<path d="M507.266 272.892L2.6001 278.986V271.051L507.266 264.957V272.892Z" fill="#E63B43"/>
<path d="M2.6001 278.986L507.266 272.892V280.313H2.6001V278.986Z" fill="#E63A43"/>
</g>
<path d="M114.664 282.36C99.7766 282.36 87.2647 277.283 78.3576 267.654C70.9307 272.183 61.6563 274.476 50.7575 274.476C43.9493 274.476 30.8895 273.047 19.9059 263.488C7.06358 252.312 0.552002 233.482 0.552002 207.522C0.552002 181.562 2.73291 163.21 7.21615 148.732C17.5951 115.232 39.5621 110.228 51.735 110.228C72.7161 110.228 84.4115 119.369 90.5304 127.036C93.7339 131.038 96.2453 135.705 98.0109 140.924L98.8923 140.935C99.4884 140.941 99.98 140.946 100.285 140.946C101.231 140.946 102.175 140.997 103.113 141.096C102.876 140.438 102.655 139.772 102.455 139.1C100.819 133.604 100.367 127.632 101.073 120.841C101.686 114.975 103.33 108.831 106.099 102.053C108.232 96.8348 110.952 91.6784 114.184 86.731C115.834 84.1923 117.659 81.6649 119.616 79.2054C115.817 74.6194 113.704 68.8587 113.63 62.793L113.61 61.8131L113.687 60.8106C114.266 52.6101 116.348 45.0732 119.871 38.4145C123.249 32.0297 127.704 26.4526 133.114 21.8355C138.004 17.6647 143.612 14.1659 149.787 11.4324C155.109 9.06883 160.838 7.12035 166.813 5.63782C172.379 4.27106 178.206 3.22058 184.136 2.51461C189.633 1.8623 195.131 1.38506 200.473 1.09702C205.654 0.823109 210.73 0.653685 215.561 0.594384C220.381 0.54073 224.7 0.4673 227.92 0.407999L228.644 0.399536L229.364 0.427768C240.147 0.888059 249.435 7.65407 253.043 17.6647C254.992 23.1007 255.263 29.0138 253.823 34.7661C252.469 40.1258 249.667 45.0478 245.712 49.0012C245.506 49.2045 245.3 49.405 245.088 49.5999C246.458 49.9331 247.794 50.3595 249.088 50.8763C252.455 47.9874 256.026 45.4629 259.727 43.3591C262.922 39.1431 267.349 35.9549 272.558 34.1222C277.352 32.4109 282.423 31.0922 287.618 30.2112C288.078 30.1321 288.542 30.053 289.008 29.9768C289.821 28.7512 290.53 27.7177 291.208 26.7632C294.121 22.6206 296.726 19.3336 299.166 16.7187C304.288 11.2121 311.249 8.17648 318.76 8.17648C321.029 8.17648 323.309 8.46169 325.532 9.02646C330.942 10.3847 335.925 13.2058 339.936 17.1762C343.349 20.5704 345.94 24.6961 347.471 29.1607C352.287 31.5497 356.222 35.3675 358.779 40.1003C359.991 39.4113 361.214 38.7703 362.432 38.1829L363.186 37.8384C366.683 36.2966 370.373 35.5116 374.144 35.5116C379.839 35.5116 385.32 37.3104 389.987 40.7103C394.727 44.1696 398.332 48.8883 400.405 54.3553C401.32 56.7838 401.928 59.2857 402.21 61.8131C405.377 64.589 407.787 68.0087 409.386 71.9932C411.341 76.87 411.838 82.2325 410.818 87.5047C409.513 94.2735 405.679 100.218 400.021 104.239C398.45 105.34 396.461 106.611 393.933 108.125C392.447 109.011 390.755 110.042 388.512 111.431C388.503 111.558 388.495 111.683 388.487 111.81C391.49 110.666 394.69 110.087 398.043 110.087H406.507C419.485 110.087 429.952 118.392 432.553 130.752C432.918 132.438 433.395 134.491 434.028 137.092C441.266 133.127 449.582 131.119 458.797 131.119C473.674 131.119 486.262 136.033 495.206 145.332C504.127 154.606 508.842 167.655 508.842 183.062C508.842 186.278 508.396 191.463 507.983 194.425C507.28 199.601 505.141 204.289 501.771 208.076C506.78 215.878 509.317 224.485 509.317 233.685C509.317 261.114 488.694 281.796 461.348 281.796C443.091 281.796 431.915 274.318 425.754 268.043C424.629 266.905 423.533 265.652 422.488 264.307C410.976 264.29 401.476 257.033 398.269 245.808L398.168 245.452L396.487 238.839C396.238 239.243 395.978 239.638 395.707 240.028C395.792 240.234 395.877 240.44 395.959 240.646C396.151 241.115 396.34 241.578 396.526 242.035L396.942 243.083C399.351 249.519 399.289 256.406 396.764 262.469C394.241 268.523 389.439 273.349 383.241 276.055C383.08 276.128 382.899 276.216 382.698 276.314L382.28 276.515C378.136 278.511 374.67 280.115 370.98 281.036C368.576 281.654 366.158 281.971 363.802 281.971C353.864 281.971 344.928 276.444 340.473 267.546L340.343 267.272C339.53 265.601 338.693 263.745 337.806 261.642C335.125 262.932 332.219 263.779 329.131 264.163L328.538 264.24L328.021 264.282C326.377 264.406 324.699 264.466 323.018 264.466C321.229 264.466 319.549 264.398 318.02 264.265L317.803 264.251C309.678 263.503 302.723 259.524 298.457 253.243C292.412 255.395 285.799 256.522 278.756 256.601C277.815 266.908 270.758 275.385 260.303 278.517C257.684 279.302 251.258 280.799 247.486 281.431L246.8 281.539L246.223 281.606C245.139 281.731 244.082 281.79 242.992 281.79C231.466 281.79 221.946 274.53 218.736 263.291L218.646 262.941L216.965 256.336C213.067 262.684 206.708 266.818 198.857 267.942C197.402 268.145 195.911 268.241 194.292 268.241C191.978 268.241 189.365 268.038 187.3 267.696C184.325 267.196 181.571 266.284 179.102 264.982C179.031 264.982 178.961 264.985 178.893 264.985H171.217C165.873 264.985 160.723 263.296 156.463 260.187C155.618 261.709 154.689 263.169 153.688 264.553C147.821 272.669 136.287 282.346 114.664 282.346V282.36ZM79.0949 262.266L80.2814 263.655C88.4456 273.211 100.336 278.263 114.661 278.263C134.552 278.263 145.055 269.509 150.363 262.167C151.717 260.297 152.923 258.27 153.951 256.135L155.141 253.67L157.172 255.505C161.019 258.984 166.005 260.902 171.215 260.902H178.89C178.98 260.902 179.071 260.899 179.161 260.896C179.305 260.89 179.449 260.885 179.594 260.885H180.127L180.594 261.145C182.783 262.365 185.266 263.215 187.975 263.669C189.826 263.974 192.19 264.158 194.292 264.158C195.721 264.158 197.026 264.073 198.284 263.898C206.583 262.709 212.9 257.516 215.606 249.654L217.838 243.174L222.683 262.201C225.384 271.618 233.353 277.704 242.992 277.704C243.927 277.704 244.831 277.653 245.754 277.548L246.283 277.486L246.825 277.399C250.444 276.792 256.622 275.354 259.128 274.603C263.815 273.2 267.755 270.557 270.518 266.962C273.236 263.423 274.705 259.126 274.761 254.525L274.787 252.458L276.855 252.504C277.219 252.512 277.595 252.521 277.962 252.521C285.412 252.521 292.338 251.284 298.551 248.847L300.186 248.206L301.07 249.725C304.531 255.678 310.749 259.487 318.133 260.179L318.337 260.19C319.758 260.314 321.334 260.377 323.018 260.377C324.597 260.377 326.17 260.317 327.699 260.204L328.148 260.168L328.605 260.105C331.959 259.69 335.041 258.648 337.781 257.013L339.832 255.788L340.73 258.002C341.914 260.922 342.996 263.376 344.033 265.505L344.146 265.748C347.906 273.234 355.429 277.882 363.791 277.882C365.81 277.882 367.887 277.611 369.972 277.074C373.299 276.244 376.571 274.727 380.506 272.83L380.907 272.635C381.147 272.519 381.365 272.412 381.557 272.327L381.585 272.316C386.82 270.037 390.865 265.985 392.981 260.905C395.105 255.805 395.148 249.988 393.103 244.523L393.001 244.252L392.733 243.594C392.546 243.14 392.357 242.674 392.162 242.202C391.939 241.654 391.71 241.095 391.478 240.533L391.029 239.44L391.749 238.506C393.193 236.628 394.331 234.496 395.134 232.172L397.368 225.685L402.205 244.696C404.9 254.127 412.869 260.221 422.511 260.221C422.706 260.221 422.895 260.216 423.084 260.207C423.197 260.204 423.31 260.199 423.423 260.196L424.488 260.168L425.124 261.023C426.248 262.537 427.44 263.935 428.669 265.18C434.285 270.898 444.506 277.709 461.343 277.709C486.352 277.709 505.215 258.787 505.215 233.694C505.215 224.79 502.607 216.488 497.469 209.016L496.494 207.601L497.72 206.395C501.116 203.058 503.26 198.726 503.921 193.872C504.316 191.028 504.74 186.013 504.74 183.067C504.74 168.736 500.421 156.673 492.248 148.176C484.095 139.701 472.527 135.22 458.795 135.22C449.317 135.22 440.904 137.499 433.785 141.991L431.384 143.505L430.703 140.752C429.723 136.793 429.036 133.89 428.545 131.614C426.35 121.188 417.493 114.19 406.507 114.19H398.043C394.072 114.19 390.362 115.139 387.023 117.011L383.32 119.087L383.998 114.899C384.255 113.306 384.416 111.722 384.472 110.189L384.512 109.144L385.382 108.562C385.444 108.52 385.506 108.483 385.568 108.444L385.67 108.379C388.28 106.758 390.181 105.597 391.831 104.615C394.269 103.155 396.176 101.938 397.656 100.898C402.439 97.4984 405.688 92.4662 406.795 86.7338C407.662 82.2354 407.244 77.6692 405.583 73.5237C404.134 69.9148 401.902 66.8537 398.95 64.4252L398.284 63.8774L398.21 63.0161C398.007 60.5791 397.456 58.1534 396.572 55.8124C394.781 51.0937 391.667 47.0188 387.571 44.0284C383.611 41.1424 378.966 39.6147 374.141 39.6147C370.943 39.6147 367.811 40.2811 364.833 41.5942L364.197 41.885C362.463 42.7237 360.697 43.6895 358.968 44.7485L356.954 45.9825L356.019 43.8138C353.844 38.7731 349.911 34.7576 344.945 32.5098L344.106 32.1286L343.835 31.2475C342.55 27.088 340.202 23.2305 337.047 20.0904C333.56 16.6368 329.23 14.1857 324.526 13.0053C322.625 12.5224 320.687 12.2796 318.758 12.2796C312.396 12.2796 306.503 14.8493 302.161 19.5172C299.847 21.9937 297.358 25.1395 294.553 29.1324C293.765 30.2422 292.934 31.4621 291.934 32.9814L291.443 33.7269L290.561 33.8737C289.802 34.0008 289.05 34.1279 288.304 34.2549C283.344 35.0965 278.507 36.3531 273.928 37.9881C269.346 39.6005 265.49 42.4188 262.767 46.1434L262.504 46.5049L262.114 46.7223C258.173 48.925 254.379 51.6415 250.834 54.7958L249.839 55.6825L248.625 55.1318C245.947 53.9176 243.043 53.1692 239.992 52.9066L234.062 52.3983L239.051 49.1509C240.396 48.2755 241.664 47.2504 242.822 46.1011C246.249 42.6757 248.681 38.4089 249.854 33.7692C251.094 28.8105 250.865 23.7191 249.19 19.0512C246.15 10.6135 238.305 4.90925 229.203 4.51956L228.593 4.49698L227.983 4.50544C224.765 4.56474 220.437 4.63817 215.606 4.69183C210.832 4.75113 205.815 4.91772 200.69 5.18881C195.436 5.47402 190.029 5.94279 184.616 6.58381C178.853 7.27001 173.192 8.28944 167.794 9.61666C162.056 11.0399 156.553 12.9121 151.448 15.1797C145.634 17.7522 140.363 21.0392 135.775 24.9531C130.761 29.2313 126.631 34.4046 123.495 40.3319C120.241 46.4823 118.314 53.4742 117.775 61.11L117.712 61.9289L117.726 62.7309C117.794 68.3843 119.947 73.7073 123.783 77.7341L125.035 79.0472L123.879 80.4478C121.597 83.2152 119.489 86.0815 117.613 88.9675C114.523 93.7031 111.924 98.6251 109.89 103.604C107.268 110.017 105.717 115.794 105.147 121.267C104.497 127.513 104.898 132.963 106.379 137.933C106.887 139.642 107.54 141.311 108.314 142.892L110.283 146.911L105.955 145.773C104.119 145.29 102.212 145.044 100.285 145.044C99.9687 145.044 99.4658 145.038 98.85 145.033L94.9911 144.982L94.5532 143.553C92.9316 138.253 90.5022 133.554 87.3325 129.595C81.773 122.628 71.0889 114.326 51.7378 114.326C26.0079 114.326 15.2532 136.643 11.1316 149.943C6.7698 164.023 4.65105 182.858 4.65105 207.522C4.65105 232.186 10.6909 250.036 22.5981 260.399C32.0759 268.648 43.1442 270.382 50.7603 270.382C61.58 270.382 70.6058 267.995 77.5807 263.291L79.0977 262.269L79.0949 262.266Z" fill="white"/>
<path d="M191.795 71.9367C194.238 71.8971 196.586 71.9705 198.832 72.1597C199.628 72.2444 200.323 71.8858 200.911 71.0838C201.498 70.2847 201.9 69.3895 202.111 68.4012C202.323 67.4128 202.292 66.4979 202.013 65.6563C201.733 64.8148 201.159 64.3546 200.286 64.2755C196.173 64.1541 192.046 64.3235 187.905 64.7781C183.763 65.2356 180.317 65.8569 177.568 66.6391C179.831 61.3584 182.173 56.1258 184.588 50.9412C185.215 49.597 191.444 33.7127 193.184 33.2411C203.722 30.389 216.697 30.1292 227.386 31.3491C228.768 31.5327 229.926 31.1571 230.864 30.2224C231.802 29.2877 232.423 28.2146 232.726 27.0032C233.031 25.7917 233 24.6791 232.635 23.6625C232.271 22.6488 231.474 22.1151 230.245 22.0614C226.434 22.1348 222.265 22.197 217.731 22.2506C213.199 22.3071 208.493 22.4624 203.617 22.725C198.738 22.9848 193.803 23.414 188.809 24.0071C183.811 24.6001 179 25.4698 174.37 26.6107C169.74 27.7543 165.37 29.234 161.259 31.0554C157.149 32.8768 153.522 35.1331 150.378 37.8158C147.233 40.5013 144.668 43.7177 142.682 47.465C140.699 51.2151 139.532 55.5497 139.185 60.4689C139.199 61.621 139.71 62.392 140.71 62.7816C141.711 63.1742 142.804 63.3267 143.985 63.2363C145.165 63.1459 146.239 62.8155 147.202 62.2366C148.166 61.6606 148.654 60.9772 148.668 60.1837C148.595 55.4396 149.505 51.4833 151.389 48.3178C153.273 45.1522 155.793 42.5514 158.954 40.5126C162.113 38.4766 165.737 36.8867 169.828 35.7487C173.915 34.6135 178.133 33.7014 182.472 33.0124C182.063 33.3315 181.421 34.3707 180.548 36.1271C179.673 37.8864 178.698 40.0099 177.627 42.5006C176.554 44.9941 175.429 47.7248 174.251 50.6898C173.073 53.6577 171.938 56.4985 170.845 59.2066C169.754 61.9175 168.785 64.3291 167.938 66.4442C167.087 68.5593 166.443 70.0305 166.003 70.8551C161.906 72.8911 158.022 75.2914 154.344 78.0532C150.666 80.8149 147.276 83.8421 144.177 87.1347C141.078 90.4302 138.318 93.9318 135.9 97.6395C133.479 101.35 131.478 105.137 129.899 108.997C128.015 113.603 126.885 117.7 126.509 121.292C126.134 124.884 126.306 127.892 127.029 130.323C127.752 132.752 128.947 134.497 130.611 135.559C132.275 136.62 134.224 136.905 136.453 136.411C138.685 135.917 141.1 134.565 143.705 132.353C146.31 130.139 148.894 126.957 151.462 122.806C153.646 119.33 155.722 115.574 157.683 111.539C159.646 107.503 161.514 103.423 163.291 99.2915C165.065 95.163 166.825 91.0345 168.565 86.9088C170.305 82.7831 172.039 78.8551 173.774 75.1248C175.02 74.4555 176.596 73.8851 178.506 73.4164C180.416 72.9476 182.495 72.5946 184.743 72.3518C186.992 72.1117 189.34 71.9677 191.786 71.9282L191.795 71.9367ZM159.426 85.9346C158.539 88.0186 157.491 90.3652 156.287 92.9745C155.081 95.5866 153.748 98.4387 152.29 101.536C150.832 104.634 149.253 107.794 147.553 111.016C144.733 116.557 142.225 120.541 140.032 122.975C137.84 125.41 136.21 126.468 135.142 126.152C134.075 125.839 133.668 124.266 133.922 121.439C134.176 118.612 135.301 114.679 137.295 109.633C139.222 104.665 142.247 99.6671 146.366 94.6406C150.485 89.6169 155.561 85.0761 161.59 81.021C161.031 82.2155 160.307 83.8534 159.423 85.9346H159.426ZM210.711 78.2367C210.976 79.3804 210.589 80.4026 209.55 81.3091C208.939 81.8541 208.052 82.6222 206.886 83.6134C205.722 84.6045 204.476 85.5279 203.154 86.3808C201.829 87.2336 200.563 87.8802 199.351 88.3151C198.139 88.75 197.221 88.6935 196.591 88.14C195.902 87.5046 195.733 86.5445 196.077 85.2569C196.422 83.9692 196.995 82.6165 197.803 81.1933C198.608 79.7729 199.512 78.4231 200.512 77.1439C201.51 75.8675 202.32 74.9215 202.945 74.303C203.818 73.5152 204.832 73.2611 205.984 73.5434C207.137 73.8258 208.146 74.3934 209.013 75.2434C209.88 76.0962 210.445 77.0902 210.713 78.2339L210.711 78.2367ZM304.161 69.4601C306.509 64.7866 309.136 60.2486 312.043 55.8547C313.755 55.6542 315.707 55.5074 317.896 55.4113C320.085 55.3182 322.241 55.2814 324.368 55.2984C326.492 55.3182 328.495 55.3831 330.377 55.4904C332.258 55.6005 333.747 55.7587 334.84 55.962C336.083 56.2303 337.148 56.0213 338.035 55.3436C338.919 54.6658 339.541 53.8271 339.897 52.8275C340.253 51.8278 340.304 50.8536 340.052 49.8991C339.798 48.9475 339.196 48.363 338.244 48.1455C337.01 48.0241 335.493 47.9592 333.693 47.9507C331.891 47.945 330.004 47.9789 328.032 48.0552C326.057 48.1342 324.105 48.2444 322.17 48.3912C320.238 48.538 318.557 48.7018 317.13 48.8797C318.509 47.1205 319.927 45.412 321.388 43.7544C322.845 42.0968 324.345 40.5267 325.891 39.0413C327.032 37.9485 327.444 36.7484 327.131 35.4381C326.817 34.1306 326.151 32.9757 325.142 31.9732C324.128 30.9707 322.964 30.3015 321.642 29.9711C320.323 29.6379 319.227 29.9372 318.362 30.8663C316.695 32.6481 314.726 35.1529 312.449 38.3834C310.172 41.6167 307.76 45.4148 305.212 49.7805C301.217 50.2973 297.302 50.8819 293.463 51.5313C289.624 52.1837 285.917 53.1466 282.341 54.423C281.007 54.8861 280.253 55.6062 280.075 56.5917C279.897 57.5773 280.041 58.5035 280.502 59.3676C280.962 60.2345 281.643 60.884 282.539 61.3189C283.434 61.7566 284.366 61.686 285.33 61.1071C287.632 60.1413 290.177 59.3026 292.968 58.5854C295.759 57.8709 298.471 57.3062 301.104 56.8911C298.644 61.4686 296.169 66.3708 293.683 71.595C292.262 74.5826 290.9 77.6211 289.581 80.7076C289.457 80.5975 289.324 80.4986 289.18 80.4083C288.612 80.0553 287.948 80.0892 287.188 80.5043C286.776 80.7528 285.965 81.2272 284.759 81.9303C283.553 82.6335 282.137 83.4778 280.522 84.4633C278.903 85.4489 277.18 86.4796 275.355 87.5527C273.527 88.6257 271.806 89.6734 270.193 90.6956C268.577 91.7179 267.134 92.6187 265.863 93.3981C264.589 94.1803 263.716 94.7677 263.241 95.163C261.973 92.6667 261.668 90.0631 262.326 87.3522C262.984 84.6412 264.196 82.0998 265.962 79.7362C267.727 77.3726 269.837 75.3055 272.295 73.535C274.753 71.7672 277.146 70.5417 279.471 69.8611C280.736 69.4799 281.468 68.6835 281.666 67.4806C281.861 66.2776 281.736 65.0831 281.287 63.8914C280.835 62.7026 280.098 61.734 279.069 60.9828C278.041 60.2345 276.934 60.1187 275.75 60.6412C272.208 62.3496 268.852 64.6172 265.682 67.4495C262.509 70.2819 259.942 73.4446 257.975 76.9377C256.204 80.0863 255.094 83.4044 254.631 86.8919C254.063 87.4595 253.464 88.044 252.814 88.6653C251.136 90.2692 249.294 91.8647 247.291 93.4546C245.288 95.0472 243.223 96.5693 241.105 98.0264C238.983 99.4835 236.952 100.735 235.017 101.779C233.079 102.827 231.336 103.57 229.785 104.01C228.234 104.451 227.045 104.417 226.214 103.903C225.691 103.654 225.333 103.214 225.141 102.581C224.949 101.949 224.844 101.291 224.83 100.607C224.813 99.924 224.892 99.2717 225.059 98.6477C225.228 98.0236 225.406 97.5238 225.595 97.151C227.192 97.3176 228.881 97.0296 230.661 96.2812C232.44 95.5357 234.161 94.505 235.828 93.1919C237.491 91.8788 239.031 90.3596 240.452 88.6314C241.867 86.906 243.051 85.1439 243.995 83.3423C245.424 80.3574 245.989 77.8131 245.687 75.7122C245.384 73.614 244.478 72.1146 242.972 71.2222C241.463 70.3299 239.523 70.1322 237.15 70.6377C234.774 71.1403 232.265 72.4647 229.618 74.608C227.655 76.2685 225.734 78.2311 223.852 80.4958C221.974 82.7606 220.318 85.1721 218.892 87.7277C217.465 90.2833 216.293 92.8559 215.372 95.4426C215.248 95.7927 215.151 96.1316 215.041 96.4761C213.394 98.5149 211.637 100.503 209.753 102.432C207.513 104.725 205.346 106.778 203.253 108.591C201.157 110.406 199.233 111.846 197.478 112.914C195.724 113.981 194.374 114.481 193.433 114.408C192.783 114.385 192.371 113.93 192.196 113.044C192.021 112.157 192.091 110.965 192.41 109.466C192.73 107.966 193.365 106.154 194.32 104.03C195.275 101.906 196.591 99.5598 198.269 96.9844C198.981 95.9226 199.083 94.8891 198.575 93.8838C198.066 92.8813 197.306 92.0906 196.289 91.5202C195.275 90.9498 194.153 90.6561 192.927 90.642C191.701 90.6279 190.766 91.1136 190.119 92.0963C188.179 94.9794 186.534 98.0179 185.193 101.215C183.851 104.411 183 107.444 182.642 110.313C182.283 113.185 182.472 115.69 183.209 117.827C183.95 119.968 185.385 121.352 187.52 121.981C189.585 122.62 191.687 122.583 193.831 121.882C195.976 121.179 198.108 120.12 200.233 118.7C202.357 117.282 204.388 115.597 206.332 113.651C208.273 111.705 210.072 109.788 211.73 107.899C212.547 106.97 213.31 106.072 214.027 105.202C214.216 106.425 214.567 107.56 215.123 108.585C216.044 110.279 217.578 111.513 219.722 112.284C221.649 113.001 223.745 113.131 226.016 112.671C228.285 112.214 230.618 111.389 233.014 110.197C235.407 109.008 237.836 107.549 240.297 105.815C242.757 104.081 245.119 102.248 247.387 100.311C249.653 98.3766 251.772 96.4168 253.746 94.4316C254.114 94.0617 254.464 93.7059 254.814 93.3529C255.244 95.4849 256.04 97.6113 257.224 99.7292C255.119 101.401 253.142 103.098 251.291 104.821C249.441 106.543 247.755 108.257 246.226 109.954C243.446 113.188 241.639 116.167 240.799 118.895C239.963 121.62 239.797 123.952 240.302 125.895C240.811 127.835 241.876 129.321 243.503 130.348C245.13 131.376 247.065 131.769 249.317 131.529C251.565 131.286 253.998 130.346 256.611 128.711C259.221 127.073 261.766 124.543 264.244 121.117C265.611 119.214 266.569 117.345 267.114 115.503C267.659 113.665 267.936 111.877 267.95 110.149C267.964 108.421 267.786 106.797 267.419 105.278C267.052 103.759 266.642 102.367 266.185 101.107C267.606 99.9212 269.417 98.6138 271.612 97.1877C273.807 95.7645 276.058 94.3328 278.36 92.8983C280.663 91.4666 282.815 90.1506 284.813 88.9561C285.496 88.5467 286.101 88.1767 286.671 87.8237C284.51 93.3218 282.55 98.8764 280.79 104.487C279.021 110.127 277.657 115.647 276.696 121.044C276.397 122.795 276.801 124.06 277.903 124.839C279.004 125.618 280.262 126.028 281.668 126.065C283.075 126.101 284.4 125.785 285.646 125.116C286.892 124.444 287.542 123.532 287.598 122.377C287.649 121.151 287.864 119.262 288.248 116.715C288.632 114.168 289.251 111.172 290.107 107.721C290.963 104.273 292.022 100.469 293.293 96.3067C294.562 92.1443 296.107 87.7983 297.923 83.2717C299.74 78.745 301.822 74.1421 304.169 69.4658L304.161 69.4601ZM229.604 88.8036C230.83 86.9484 232.138 85.175 233.522 83.4863C234.311 82.4923 235.093 81.6395 235.867 80.9335C236.641 80.2275 237.254 79.7672 237.706 79.5526C238.158 79.3408 238.432 79.4086 238.531 79.7588C238.627 80.1118 238.432 80.846 237.941 81.9614C236.537 85.3077 234.788 87.8859 232.695 89.6988C230.598 91.5145 228.805 92.5481 227.313 92.8051C227.61 91.9918 228.375 90.6561 229.601 88.8008L229.604 88.8036ZM259.521 109.483C259.357 110.646 258.981 111.883 258.396 113.185C257.809 114.49 257.029 115.825 256.054 117.195C255.077 118.564 253.95 119.838 252.67 121.013C250.322 123.277 248.704 124.029 247.82 123.269C246.935 122.507 247.481 120.434 249.455 117.045C250.67 115.009 252.266 113.018 254.241 111.07C256.215 109.121 257.882 107.594 259.238 106.481C259.588 107.317 259.682 108.319 259.521 109.483ZM389.289 78.7874C389.023 78.1237 388.605 77.6155 388.04 77.2625C387.472 76.9095 386.809 76.9434 386.049 77.3585C385.636 77.607 384.825 78.0814 383.619 78.7845C382.413 79.4877 380.998 80.332 379.382 81.3176C377.763 82.3031 376.04 83.3338 374.215 84.4069C372.387 85.4799 370.667 86.5276 369.054 87.5498C367.438 88.5721 365.994 89.4729 364.723 90.2523C363.449 91.0345 362.576 91.6219 362.101 92.0172C360.833 89.5209 360.528 86.9173 361.186 84.2064C361.844 81.4954 363.056 78.954 364.822 76.5904C366.587 74.2268 368.698 72.1597 371.158 70.3892C373.616 68.6214 376.009 67.3959 378.334 66.7153C379.599 66.3341 380.331 65.5377 380.529 64.3348C380.723 63.1318 380.599 61.9373 380.15 60.7456C379.698 59.5568 378.961 58.5882 377.932 57.837C376.904 57.0887 375.797 56.9729 374.613 57.4954C371.071 59.2038 367.715 61.4714 364.545 64.3037C361.372 67.1361 358.805 70.2988 356.838 73.7919C355.059 76.9547 353.946 80.2897 353.488 83.7941C349.417 88.1796 345.999 91.5428 343.236 93.8753C340.052 96.5636 337.905 97.6621 336.789 97.1708C335.671 96.6794 335.597 94.5276 336.572 90.7098C337.541 86.8947 339.725 81.2244 343.115 73.6959C343.674 72.5042 343.787 71.4142 343.462 70.4315C343.134 69.4488 342.575 68.7174 341.784 68.2374C340.993 67.7573 340.058 67.5427 338.982 67.5851C337.905 67.6302 336.931 68.0821 336.061 68.9405C335.518 69.4121 334.905 70.0729 334.213 70.9144C333.521 71.7587 332.832 72.6398 332.145 73.5547C331.459 74.4697 330.786 75.3507 330.131 76.1894C329.476 77.0309 328.913 77.7228 328.453 78.2593C326.546 75.8844 324.331 74.4697 321.814 74.0122C319.294 73.5547 316.664 74.2579 313.927 76.1188C311.596 77.6635 309.379 79.5244 307.274 81.696C305.169 83.8703 303.311 86.1887 301.698 88.6483C300.085 91.1107 298.74 93.5675 297.666 96.0243C296.593 98.4811 295.937 100.743 295.697 102.813C295.46 104.883 295.663 106.648 296.313 108.11C296.966 109.573 298.166 110.491 299.923 110.861C302.559 111.454 305.234 110.892 307.949 109.175C310.664 107.458 313.303 105.227 315.868 102.477C318.43 99.7292 320.896 96.8432 323.261 93.8217C325.625 90.8001 327.735 88.2473 329.594 86.1633C327.741 92.133 327.066 96.5411 327.569 99.379C328.072 102.22 329.329 104.069 331.337 104.925C334.535 106.266 338.253 105.464 342.496 102.516C345.73 100.269 349.519 96.4337 353.855 91.0232C354.316 92.8785 355.053 94.7309 356.087 96.5778C353.982 98.2495 352.005 99.9466 350.154 101.669C348.304 103.392 346.618 105.106 345.089 106.803C342.309 110.036 340.501 113.016 339.662 115.743C338.826 118.468 338.66 120.801 339.165 122.744C339.674 124.684 340.739 126.169 342.366 127.197C343.993 128.225 345.928 128.617 348.18 128.377C350.428 128.135 352.861 127.194 355.474 125.559C358.084 123.921 360.629 121.391 363.107 117.966C364.474 116.062 365.432 114.193 365.977 112.352C366.522 110.514 366.799 108.726 366.813 106.998C366.827 105.27 366.649 103.646 366.282 102.127C365.915 100.607 365.505 99.2152 365.048 97.9558C366.469 96.7698 368.28 95.4623 370.475 94.0363C372.67 92.613 374.921 91.1813 377.223 89.7468C379.526 88.3151 381.678 86.9992 383.676 85.8047C385.673 84.6102 387.184 83.6501 388.21 82.9243C388.891 82.4415 389.311 81.7976 389.467 80.9928C389.622 80.1908 389.566 79.4566 389.3 78.793L389.289 78.7874ZM324.009 82.481C323.699 83.1531 323.021 84.1753 321.972 85.5505C320.924 86.9258 319.721 88.3857 318.362 89.9275C317.003 91.4722 315.605 92.9801 314.17 94.4542C312.732 95.9311 311.438 97.1425 310.288 98.0942C308.591 99.4468 307.339 100.28 306.534 100.59C305.729 100.904 305.26 100.867 305.121 100.48C304.983 100.096 305.079 99.4581 305.41 98.5686C305.737 97.6791 306.17 96.7302 306.706 95.7165C307.24 94.7055 307.85 93.6861 308.528 92.6639C309.206 91.6416 309.774 90.8255 310.232 90.2127C312.393 87.3861 314.379 85.2936 316.184 83.9325C317.989 82.5742 319.506 81.7016 320.738 81.3204C321.967 80.9392 322.882 80.9053 323.484 81.2215C324.083 81.5378 324.258 81.9557 324.012 82.4782L324.009 82.481ZM358.378 106.334C358.214 107.498 357.838 108.735 357.254 110.036C356.666 111.341 355.886 112.677 354.912 114.046C353.934 115.416 352.807 116.689 351.527 117.864C349.18 120.129 347.561 120.88 346.677 120.12C345.793 119.358 346.338 117.285 348.313 113.897C349.527 111.861 351.123 109.87 353.098 107.921C355.073 105.973 356.739 104.445 358.098 103.332C358.449 104.168 358.542 105.171 358.381 106.334H358.378ZM67.6876 223.257C67.6876 222.138 67.8486 221.339 69.2865 221.181C70.2442 221.02 72.3234 221.02 73.7613 221.181C75.0382 221.342 75.1992 222.138 75.1992 223.257C75.1992 243.538 70.086 252.8 50.7547 252.8C33.6607 252.8 24.2338 239.387 24.2338 209.521C24.2338 169.595 29.9967 135.897 51.7264 135.897C71.538 135.897 77.4479 147.715 77.4479 163.684C77.4479 166.24 77.2868 169.753 76.9676 171.828C76.8066 173.266 76.01 174.223 74.25 174.223C71.0549 174.223 66.9022 173.904 64.823 173.585C62.9049 173.266 62.7467 171.828 62.7467 171.029C62.7467 169.273 63.0659 167.036 63.0659 163.043C63.2269 151.225 60.029 146.433 50.7631 146.433C41.4972 146.433 38.449 175.499 38.449 206.322C38.449 233.632 42.7628 245.289 53.6277 245.289C63.532 245.289 67.6876 239.059 67.6876 225.804V223.248V223.257ZM114.659 260.687C134.628 260.687 139.261 249.188 139.58 231.302C140.061 207.508 139.58 161.033 139.419 147.619C139.419 146.981 139.1 146.501 138.301 146.501C136.063 146.34 134.786 146.501 133.188 146.501C132.069 146.501 131.75 146.981 131.75 147.938C131.911 155.444 132.549 220.602 131.75 232.739C131.111 242.482 127.755 250.307 116.893 250.307C108.746 250.307 103.472 244.08 102.675 234.496C102.036 227.309 102.836 184.03 102.036 168.219C102.036 166.943 101.237 166.621 100.279 166.621C98.5222 166.621 91.8129 166.46 89.7366 166.621C88.6179 166.621 88.1376 167.101 88.1376 168.378C88.1376 188.181 87.6574 223.155 88.4568 233.855C89.5755 249.824 97.0843 260.684 114.659 260.684V260.687ZM178.882 243.32C180.319 243.32 180.639 242.682 180.639 241.245C180.478 239.008 180.319 222.24 180.319 209.623C180.319 205.791 180.958 203.715 181.757 201.479C187.19 187.266 196.775 162.512 201.089 151.014C201.569 149.895 201.089 148.938 199.812 148.938H195.659C194.379 148.938 193.583 149.737 193.264 150.694C189.907 159.477 183.04 178.481 178.565 189.98L155.081 136.002C154.762 135.203 154.282 134.884 153.163 135.203C150.926 136.16 144.377 139.035 142.459 140.153C141.66 140.633 141.501 141.11 141.821 141.909C143.098 144.945 159.076 181.037 168.022 200.838C168.661 202.114 169.621 205.63 169.621 208.344C169.46 222.556 169.46 240.443 169.782 241.88C169.943 242.998 170.421 243.317 171.22 243.317H178.887L178.882 243.32ZM253.492 257.852C251.893 258.332 246.464 259.608 243.588 260.086C242.15 260.247 241.831 259.925 241.511 258.809L232.245 222.398L204.925 222.717C204.445 222.717 203.648 223.197 203.487 223.836L197.097 245.235C196.778 246.192 196.617 246.353 195.501 246.511C194.382 246.672 192.145 246.511 191.187 246.35C190.23 246.189 189.591 246.031 189.91 244.913C196.781 218.722 210.519 170.013 215.793 155.32C216.431 153.564 217.389 153.244 218.508 153.244H226.977C228.573 153.244 229.533 153.564 229.853 155.162C234.166 174.966 249.342 228.783 255.094 255.454C255.413 257.053 255.094 257.372 253.498 257.849L253.492 257.852ZM236.398 212.656C234.003 199.082 226.971 174.966 226.014 166.983C223.138 174.649 214.191 210.1 212.753 215.211C220.581 214.892 227.771 215.531 234.799 215.211C236.717 215.05 236.717 214.412 236.398 212.656ZM306.073 209.225C306.073 225.036 296.488 234.936 277.956 234.936C271.725 234.936 264.696 234.298 259.425 233.499C258.145 233.338 257.506 232.381 257.506 231.423C257.506 224.237 256.868 145.346 257.026 139.755C257.026 138.797 257.345 137.998 258.464 137.679C264.854 136.081 269.168 135.604 276.038 135.604C294.251 135.604 305.274 144.705 305.274 163.391C305.274 172.334 301.76 182.234 293.612 186.707C302.717 190.22 306.073 199.963 306.073 209.225ZM266.292 185.589C283.386 185.589 291.056 178.882 291.056 163.71C291.056 151.412 284.666 145.984 273.323 145.984C270.767 145.984 266.453 146.622 264.377 147.102L264.696 183.674C264.696 184.632 265.176 185.592 266.295 185.592L266.292 185.589ZM298.723 208.906C298.723 197.249 293.29 191.658 280.99 191.658C276.677 191.658 273.482 192.296 271.564 193.095C270.925 198.844 271.083 219.764 271.564 227.111C274.281 227.591 276.677 227.591 280.191 227.591C293.129 227.591 298.723 218.648 298.723 208.906ZM373.633 256.415C371.876 257.214 367.243 259.608 365.166 260.088C363.409 260.569 362.291 260.249 361.652 258.97C356.7 248.751 351.267 231.502 348.872 220.964C345.038 204.035 340.886 201.64 330.82 201.002C329.702 201.002 328.902 201.482 328.902 202.919L328.583 240.29C328.583 242.208 327.464 242.527 326.187 242.685C324.111 242.846 321.874 242.846 319.955 242.685C318.198 242.524 317.721 241.886 317.721 240.448C318.201 229.907 318.52 157.565 318.52 148.142C318.52 146.543 319.159 145.905 320.277 145.747C322.354 145.428 328.586 145.109 332.419 145.109C356.223 145.109 366.449 154.532 366.449 173.218C366.449 185.197 360.217 192.7 351.112 196.534C357.663 200.527 361.336 209.629 363.731 220.489C366.449 233.106 371.24 244.763 374.757 253.387C375.237 254.667 375.237 255.782 373.638 256.423L373.633 256.415ZM352.225 173.689C352.225 159.796 346.954 152.448 332.575 152.448C331.137 152.448 328.899 152.609 328.103 152.767C326.823 152.928 326.345 153.566 326.184 155.004C325.704 160.434 325.546 182.632 326.023 193.013C329.38 193.332 331.936 193.812 335.131 193.812C346.634 193.812 352.225 188.224 352.225 173.689ZM433.022 240.364C431.423 240.844 425.994 242.12 423.118 242.597C421.68 242.758 421.361 242.436 421.042 241.321L411.776 204.91L384.455 205.229C383.975 205.229 383.178 205.709 383.017 206.347L376.627 227.747C376.308 228.704 376.147 228.865 375.031 229.023C373.912 229.184 371.675 229.023 370.717 228.862C369.76 228.701 369.121 228.543 369.441 227.425C376.311 201.233 390.049 152.524 395.323 137.832C395.961 136.075 396.919 135.756 398.038 135.756H406.507C408.103 135.756 409.064 136.075 409.383 137.674C413.697 157.477 428.872 211.295 434.624 237.966C434.943 239.565 434.624 239.884 433.028 240.361L433.022 240.364ZM415.928 195.168C413.533 181.593 406.501 157.477 405.544 149.494C402.668 157.161 393.721 192.612 392.283 197.723C400.111 197.404 407.301 198.042 414.329 197.723C416.248 197.562 416.248 196.924 415.928 195.168ZM482.431 194.967C483.392 194.967 484.349 194.487 484.508 193.211C484.827 190.974 485.146 186.823 485.146 185.067C485.146 168.14 477.157 156.8 458.786 156.8C442.011 156.8 433.703 167.338 433.703 183.629C433.703 194.329 439.616 202.953 448.56 209.502C454.311 213.653 460.543 217.007 466.453 221.48C470.925 224.835 475.239 231.381 475.239 236.972C475.239 245.915 469.487 252.941 461.498 252.941C450.475 252.941 443.127 247.034 443.127 230.904C443.127 229.627 442.328 229.147 441.37 229.147C439.455 228.986 438.494 229.147 436.898 229.466C436.099 229.627 435.621 230.424 435.621 231.223C435.302 249.109 443.449 260.128 461.343 260.128C477.318 260.128 485.626 248.149 485.626 235.693C485.626 224.993 479.075 218.126 470.928 211.899C466.775 208.705 457.029 202.476 453.515 199.601C448.082 195.128 444.407 190.5 444.407 182.353C444.407 172.771 449.52 167.499 456.71 167.499C467.575 167.499 470.609 173.568 470.609 185.705C470.609 188.58 470.128 191.773 470.128 193.211C470.128 194.329 471.086 194.967 472.205 194.967H482.428H482.431Z" fill="white"/>
</svg>
