<svg width="567" height="1281" viewBox="0 0 567 1281" fill="none" xmlns="http://www.w3.org/2000/svg">
<path d="M564.678 673.618L540.105 612.211C535.963 601.88 526.097 594.853 514.974 594.364L285.862 583.916L433.81 557.343C441.675 555.924 448.632 551.247 452.891 544.476C457.149 537.705 458.359 529.398 456.218 521.696L438.161 456.799C434.741 444.536 423.478 435.95 410.75 435.95C408.074 435.95 405.421 436.322 402.838 437.067L287.305 470.434L442.326 402.908C453.473 398.069 460.314 386.667 459.336 374.544L454.147 309.321C453.426 300.34 448.423 292.149 440.767 287.402L384.921 252.778C380.406 249.986 375.217 248.497 369.912 248.497C363.815 248.497 358.021 250.405 353.088 253.988L190.876 372.706L274.577 280.328C279.812 274.558 282.465 266.763 281.86 258.991C281.255 251.219 277.416 243.959 271.342 239.05L219.126 196.933C214.076 192.861 207.747 190.627 201.255 190.627C191.97 190.627 183.267 195.165 177.939 202.75L96.8211 318.303C87.909 331.008 90.9106 348.715 103.523 357.767C105.896 359.466 108.27 361.211 110.62 362.979C120.463 370.425 130.097 378.476 139.195 386.923C144.454 391.786 151.295 394.485 158.462 394.485C160.673 394.485 162.86 394.206 165.001 393.694C162.464 397.44 160.789 401.745 160.23 406.306C159.788 409.912 160.091 413.519 161.022 416.963C98.7292 340.781 4.04568 292.056 -101.807 292.056C-195.537 292.056 -280.494 330.24 -341.972 391.879C-338.83 383.525 -339.714 373.985 -344.787 366.283C-340.878 368.238 -336.527 369.332 -332.036 369.332C-325.59 369.332 -319.261 367.098 -314.211 363.049C-302.227 353.416 -289.499 344.434 -276.398 336.383C-263.437 328.425 -259.086 311.741 -266.485 298.385L-363.333 123.52C-368.359 114.468 -377.9 108.837 -388.255 108.837C-394.095 108.837 -399.703 110.606 -404.52 113.956L-459.948 152.583C-472.653 161.425 -475.934 179.063 -467.255 191.884L-370.547 334.754L-503.648 173.338C-509.07 166.753 -517.075 162.984 -525.614 162.984C-529.221 162.984 -532.758 163.659 -536.109 164.985L-596.726 189.045C-605.103 192.372 -611.456 199.562 -613.759 208.265L-630.56 272.254C-633.399 283.028 -629.629 294.522 -620.996 301.573L-429.744 457.218C-424.671 461.336 -418.296 463.617 -411.78 463.617C-404.311 463.617 -397.283 460.662 -392.024 455.589C-417.504 497.449 -434.142 545.244 -439.424 596.365C-438.842 582.916 -447.731 570.723 -460.949 567.442L-675.935 513.807C-678.192 513.249 -680.519 512.97 -682.823 512.97C-692.503 512.97 -701.439 517.81 -706.698 525.931L-742.323 580.798C-747.233 588.361 -748.257 597.901 -745.092 606.347L-721.916 667.847C-717.797 678.76 -707.605 685.997 -695.947 686.276L-470.605 691.558C-462.88 691.558 -455.364 688.347 -450.035 682.762C-444.706 677.178 -441.844 669.569 -442.193 661.867C-443.124 641.251 -442.31 620.425 -439.75 599.949C-440.704 610.326 -441.239 620.844 -441.239 631.478C-441.239 818.629 -288.987 970.876 -101.831 970.876C-73.7442 970.876 -46.4491 967.433 -20.3175 960.964C-27.9034 963.291 -35.559 965.385 -43.2379 967.223C-54.989 970.039 -63.4126 979.765 -64.9251 991.213C-68.9972 980.463 -79.3522 972.901 -91.4989 972.901C-91.8014 972.901 -92.0806 972.901 -92.3831 972.901C-95.3151 972.994 -98.247 973.04 -101.179 973.064H-103.227C-114.908 973.064 -126.752 972.505 -138.433 971.388C-139.341 971.295 -140.248 971.249 -141.133 971.249C-150.022 971.249 -158.05 975.484 -163.308 982.069C-163.983 979.183 -165.077 976.391 -166.613 973.808C-170.638 967.084 -177.363 962.29 -185.019 960.661C-205.566 956.264 -225.88 950.074 -245.357 942.232C-248.777 940.86 -252.384 940.162 -256.084 940.162C-261.506 940.162 -266.695 941.697 -271.139 944.466C-271.139 942.465 -271.372 940.464 -271.837 938.509C-273.536 930.994 -278.306 924.409 -284.915 920.453C-298.155 912.495 -311 903.63 -323.123 894.089C-328.103 890.18 -334.316 888.04 -340.645 888.04C-343.81 888.04 -346.905 888.575 -349.813 889.552C-348.79 887.039 -348.091 884.41 -347.789 881.664C-346.975 873.752 -349.534 865.818 -354.816 859.884C-368.918 844.015 -381.739 826.866 -392.885 808.902C-398.144 800.432 -407.219 795.36 -417.155 795.36C-420.716 795.36 -424.159 796.058 -427.44 797.338C-423.578 794.592 -420.39 790.916 -418.272 786.588C-414.805 779.467 -414.479 771.137 -417.365 763.761C-422.973 749.427 -427.743 734.605 -431.489 719.69C-434.677 707.078 -446.01 698.283 -459.04 698.283C-460.949 698.283 -462.88 698.469 -464.765 698.864L-660.601 738.956C-668.489 740.562 -675.33 745.472 -679.426 752.406C-683.498 759.34 -684.452 767.717 -682.055 775.395L-661.787 839.85C-658.041 851.763 -647.128 859.768 -634.632 859.768C-631.863 859.768 -629.117 859.372 -626.464 858.558L-437.26 801.875L-652.456 903.467C-663.672 908.772 -670.141 920.593 -668.536 932.879L-660.135 997.542C-658.972 1006.48 -653.573 1014.41 -645.685 1018.79L-587.814 1050.8C-583.602 1053.13 -578.832 1054.36 -574.038 1054.36C-567.872 1054.36 -562.008 1052.43 -557.051 1048.73L-374.758 913.263L-470.117 1029.72C-475.189 1035.91 -477.423 1043.99 -476.26 1051.9C-475.096 1059.81 -470.629 1066.91 -463.997 1071.37L-408.103 1109C-403.38 1112.16 -397.888 1113.84 -392.234 1113.84C-382.623 1113.84 -373.734 1109.05 -368.452 1101.04L-324.45 1034.26L-387.417 1149.44C-393.234 1160.1 -391.652 1173.29 -383.484 1182.27L-339.412 1230.63C-334.037 1236.54 -326.358 1239.91 -318.376 1239.91C-317.376 1239.91 -316.398 1239.86 -315.398 1239.75L-250.057 1232.88C-238.446 1231.67 -228.882 1223.62 -225.671 1212.41L-171.755 1024.37L-181.296 1138.34C-181.947 1146.11 -179.341 1153.91 -174.129 1159.7C-168.916 1165.52 -161.47 1168.96 -153.675 1169.15L-86.6123 1170.89H-85.8676C-78.1654 1170.89 -70.6726 1167.71 -65.3439 1162.15C-59.9221 1156.51 -57.1065 1149.09 -57.4323 1141.27L-62.3189 1021.42L-35.5125 1243.38C-34.0232 1255.69 -24.8551 1265.55 -12.6618 1267.9L51.3526 1280.33C53.1443 1280.68 54.9593 1280.84 56.7743 1280.84C63.9413 1280.84 70.7826 1278.16 76.0647 1273.3L124.698 1228.49C132.889 1220.95 135.937 1209.22 132.447 1198.65L56.8441 969.155L140.428 1114.82C145.478 1123.64 154.948 1129.13 165.14 1129.13C171.027 1129.13 176.705 1127.34 181.545 1123.92L236.601 1085.06C242.86 1080.64 247.002 1074.05 248.259 1066.49C249.516 1058.93 247.747 1051.36 243.279 1045.15L165.838 937.695L282.209 1078.77C287.631 1085.36 295.636 1089.13 304.176 1089.13C307.596 1089.13 310.947 1088.52 314.158 1087.31L375.427 1064.37C383.874 1061.21 390.366 1054.16 392.832 1045.48L410.75 982.255C413.938 971.039 410.028 959.149 400.814 952.005L223.291 814.231C218.311 810.368 212.121 808.251 205.839 808.251C196.345 808.251 187.526 812.951 182.243 820.816C170.539 838.268 157.229 854.812 142.709 869.983C134.494 878.569 132.61 891.064 137.24 901.419C132.703 898.487 127.351 896.858 121.836 896.858C115.507 896.858 109.27 899.022 104.291 902.932C92.1672 912.449 79.2992 921.314 66.0589 929.272C55.6341 935.531 50.701 947.654 52.8651 959.056C47.8621 950.446 38.6242 944.955 28.3856 944.908C151.062 893.717 237.508 772.533 237.508 631.524C237.508 570.002 221.057 512.272 192.319 462.453C196.042 468.084 199.626 473.808 203.023 479.626C207.933 488.026 216.822 493.331 226.455 493.75C225.432 495.076 224.501 496.472 223.71 497.961C220.126 504.779 219.475 512.877 221.918 520.183C226.804 534.819 230.83 549.897 233.855 565.045C235.949 575.516 243.745 583.707 253.611 586.662C251.051 588.058 248.678 589.827 246.63 591.967C241.232 597.622 238.416 605.021 238.765 612.816C239.673 634.014 238.742 655.421 236.019 676.387C234.134 690.79 243.326 704.286 257.357 707.799L496.87 767.344C499.127 767.903 501.431 768.182 503.735 768.182C513.647 768.182 522.699 763.156 527.912 754.733L562.304 699.33C567.051 691.674 567.889 682.111 564.538 673.734L564.678 673.618Z" fill="white"/>
<path d="M448.958 787.751L265.06 711.336C261.569 709.894 257.893 709.149 254.146 709.149C241.743 709.149 230.853 717.084 227.06 728.881C222.337 743.517 216.636 758.014 210.12 771.952C203.675 785.727 209.213 802.061 222.709 809.135L399.72 902.001C403.792 904.141 408.353 905.258 412.937 905.258C424.665 905.258 435.043 898.231 439.394 887.341L464.479 824.609C470.227 810.229 463.269 793.708 448.981 787.751H448.958Z" fill="white"/>
<path d="M-99.5967 291.428H-97.6188C-82.8427 291.428 -67.9269 292.312 -53.2671 294.08C-52.1502 294.22 -50.9867 294.29 -49.8698 294.29C-40.7249 294.29 -32.4409 289.822 -27.2053 282.888C-26.7399 285.168 -26.0418 287.425 -25.0413 289.566C-21.6207 296.756 -15.3146 302.201 -7.70547 304.528C12.5855 310.741 32.4577 318.745 51.3292 328.309C55.3316 330.333 59.8226 331.403 64.2903 331.403C73.9006 331.403 82.7663 326.633 88.0485 318.629L223.966 112.653C230.807 102.299 230.178 88.8495 222.406 79.1696L181.615 28.3041C176.193 21.5328 168.096 17.6469 159.416 17.6469C159.02 17.6469 158.625 17.6469 158.253 17.6702L92.1672 20.3926C81.0444 20.858 71.1316 27.8154 66.9663 38.1467L-18.9446 250.032L1.88155 101.95C2.99849 94.0384 0.694855 85.9641 -4.40117 79.8212C-9.49718 73.6782 -17.0132 69.9319 -24.9947 69.5596L-92.2901 66.4649C-92.7322 66.4649 -93.1743 66.4416 -93.6165 66.4416C-108.998 66.4416 -121.493 78.4948 -122.052 93.8755L-128.125 262.016C-128.404 269.811 -125.589 277.187 -120.167 282.818C-114.768 288.426 -107.508 291.497 -99.5734 291.497L-99.5967 291.428Z" fill="white"/>
<path d="M516.184 747.24L550.576 691.837C552.996 687.928 553.438 683.088 551.716 678.807L527.144 617.4C525.026 612.118 520.023 608.558 514.346 608.302L268.015 597.063C259.521 596.668 252.517 603.625 252.866 612.118C253.797 634.107 252.866 656.166 250.004 678.085C249.05 685.438 253.681 692.349 260.871 694.141L500.384 753.686C506.504 755.198 512.88 752.615 516.207 747.263L516.184 747.24Z" fill="#EEE318"/>
<path d="M445.398 375.637L440.209 310.415C439.837 305.808 437.324 301.666 433.391 299.246L377.544 264.622C372.518 261.504 366.096 261.76 361.325 265.25L179.986 397.975C173.215 402.932 172.028 412.565 177.427 418.987C191.668 435.88 204.28 453.797 215.193 472.505C218.916 478.904 226.781 481.534 233.576 478.602L436.719 390.134C442.396 387.667 445.887 381.85 445.375 375.684L445.398 375.637Z" fill="#EEE318"/>
<path d="M426.433 882.153L451.518 819.42C454.473 812.044 450.936 803.69 443.606 800.642L259.708 724.204C251.889 720.946 242.954 725.065 240.347 733.139C235.461 748.287 229.597 763.226 222.756 777.839C219.475 784.819 222.36 793.149 229.178 796.756L406.189 889.622C413.798 893.624 423.199 890.157 426.387 882.153H426.433Z" fill="#F0841A"/>
<path d="M169.282 375.73L264.245 270.928C269.853 264.738 269.085 255.128 262.593 249.893L210.376 207.776C203.838 202.518 194.227 203.867 189.387 210.731L108.27 326.284C103.709 332.8 105.221 341.758 111.69 346.389C114.157 348.157 116.624 349.972 119.067 351.81C129.468 359.675 139.358 367.982 148.712 376.661C154.623 382.129 163.861 381.687 169.259 375.73H169.282Z" fill="#F0841A"/>
<path d="M442.722 525.419L424.665 460.522C422.501 452.75 414.403 448.236 406.654 450.47L245.024 497.17C237.113 499.451 232.692 507.851 235.298 515.669C240.394 530.933 244.536 546.5 247.677 562.207C249.213 569.932 256.706 574.958 264.431 573.562L431.32 543.592C439.744 542.079 445.026 533.656 442.722 525.419Z" fill="#F0841A"/>
<path d="M-9.84627 1254.13L54.1681 1266.55C58.7057 1267.44 63.3596 1266.11 66.7569 1262.97L115.413 1218.15C119.602 1214.29 121.138 1208.36 119.369 1202.96L42.2076 968.759C39.5549 960.685 30.5496 956.613 22.731 959.963C2.50983 968.666 -18.456 975.623 -39.9337 980.766C-47.1472 982.487 -51.964 989.282 -51.0565 996.635L-21.481 1241.63C-20.7364 1247.89 -16.036 1252.94 -9.84627 1254.13Z" fill="#EEE318"/>
<path d="M309.411 1074.17L370.68 1051.22C375.008 1049.59 378.289 1046.03 379.545 1041.59L397.463 978.369C399.068 972.668 397.067 966.572 392.39 962.965L214.867 825.191C208.235 820.048 198.648 821.561 193.971 828.518C181.662 846.854 167.909 863.91 152.924 879.546C147.805 884.898 147.432 893.182 152.133 898.883L293.123 1069.79C297.055 1074.56 303.594 1076.31 309.411 1074.14V1074.17Z" fill="#EEE318"/>
<path d="M173.634 1112.42L228.689 1073.56C235.275 1068.91 236.81 1059.79 232.087 1053.22L133.727 916.73C128.91 910.052 119.509 908.702 113.04 913.798C100.381 923.757 87.1178 932.878 73.3655 941.116C66.6174 945.164 64.3835 953.89 68.3161 960.731L152.691 1107.79C156.95 1115.21 166.653 1117.35 173.634 1112.42Z" fill="#F0841A"/>
<path d="M211.54 87.8955L170.748 37.0299C167.863 33.4232 163.442 31.4221 158.834 31.6082L92.7491 34.3307C87.0714 34.5634 82.0451 38.1002 79.9043 43.3822L-12.7548 271.905C-15.9427 279.77 -11.7309 288.705 -3.58663 291.195C17.449 297.64 37.9494 305.878 57.6587 315.86C64.2672 319.211 72.3417 317.14 76.4139 310.95L212.331 104.975C215.798 99.716 215.472 92.8284 211.54 87.9187V87.8955Z" fill="#EEE318"/>
<path d="M-101.761 956.869C77.9787 956.869 223.686 811.165 223.686 631.431C223.686 451.697 77.9787 305.994 -101.761 305.994C-281.5 305.994 -427.208 451.697 -427.208 631.431C-427.208 811.165 -281.5 956.869 -101.761 956.869Z" fill="#EEE318"/>
</svg>
