<svg width="77" height="64" viewBox="0 0 77 64" fill="none" xmlns="http://www.w3.org/2000/svg">
<path d="M72.9312 0.566102H72.9412C69.6112 -0.653898 60.3612 -0.0239015 38.9112 3.6561C26.9212 5.7161 25.0912 5.48612 16.6012 9.11612C15.9412 9.39612 4.6712 14.4061 1.6912 25.2561C-2.2788 39.6761 10.5112 56.7061 25.7912 61.6061C42.0612 66.8361 56.4212 56.7761 58.4712 55.2861C79.3412 40.1661 79.7712 3.0461 72.9312 0.566102ZM59.7712 28.5861C59.7712 29.7161 59.2312 30.2461 58.0812 30.2161C55.2212 30.1461 52.5012 29.5161 49.9412 28.2561C49.8012 28.1861 49.6712 28.1361 49.4712 28.0461V28.6261C49.4712 32.9761 49.5012 37.3161 49.4512 41.6661C49.3712 48.4361 44.2012 54.5661 37.4812 55.9561C36.7512 56.1061 36.0112 56.2061 35.2812 56.3261H33.0012C32.6512 56.2761 32.3112 56.2161 31.9712 56.1661C25.7912 55.3061 20.7112 50.7361 19.2612 44.7161C19.0812 43.9361 18.9712 43.1261 18.8312 42.3361V40.0761C18.9812 39.2461 19.0912 38.4061 19.2812 37.5961C20.7212 31.5161 26.1412 26.8161 32.4512 26.1661C32.9612 26.1161 33.4812 26.0761 34.0012 26.0761C34.9812 26.0461 35.5412 26.5961 35.5412 27.5661V34.4661C35.5312 35.4561 35.0212 35.9661 33.9912 36.0061C31.3312 36.1161 29.2112 38.0961 28.9512 40.7161C28.6912 43.3561 30.5912 45.8161 33.2412 46.2761C35.9112 46.7361 38.5512 45.1061 39.2112 42.5361C39.3512 42.0061 39.4012 41.4361 39.4012 40.8861V11.7761C39.4012 10.5661 39.8812 10.0961 41.1212 10.0961H47.8812C48.9412 10.0961 49.4512 10.5861 49.4812 11.6361C49.6412 16.3661 53.3012 20.0261 58.1012 20.2361C59.3112 20.2961 59.7712 20.7561 59.7712 21.9461C59.7712 24.1661 59.7712 26.3761 59.7712 28.5861Z" fill="#EF7C1A"/>
<path d="M58.1012 20.2361C53.3012 20.0261 49.6412 16.3661 49.4812 11.6361C49.4512 10.5861 48.9412 10.0961 47.8812 10.0961H41.1212C39.8812 10.0961 39.4012 10.5661 39.4012 11.7761V40.8861C39.4012 41.4361 39.3512 42.0061 39.2112 42.5361C38.5512 45.1061 35.9112 46.7361 33.2412 46.2761C30.5912 45.8161 28.6912 43.3561 28.9512 40.7161C29.2112 38.0961 31.3312 36.1161 33.9912 36.0061C35.0212 35.9661 35.5312 35.4561 35.5412 34.4661V27.5661C35.5412 26.5961 34.9812 26.0461 34.0012 26.0761C33.4812 26.0761 32.9612 26.1161 32.4512 26.1661C26.1412 26.8161 20.7212 31.5161 19.2812 37.5961C19.0912 38.4061 18.9812 39.2461 18.8312 40.0761V42.3361C18.9712 43.1261 19.0812 43.9361 19.2612 44.7161C20.7112 50.7361 25.7912 55.3061 31.9712 56.1661C32.3112 56.2161 32.6512 56.2761 33.0012 56.3261H35.2812C36.0112 56.2061 36.7512 56.1061 37.4812 55.9561C44.2012 54.5661 49.3712 48.4361 49.4512 41.6661C49.5012 37.3161 49.4712 32.9761 49.4712 28.6261V28.0461C49.6712 28.1361 49.8012 28.1861 49.9412 28.2561C52.5012 29.5161 55.2212 30.1461 58.0812 30.2161C59.2312 30.2461 59.7712 29.7161 59.7712 28.5861V21.9461C59.7712 20.7561 59.3112 20.2961 58.1012 20.2361ZM57.0412 27.4761C56.2512 27.3461 55.5212 27.2561 54.8012 27.0961C52.7012 26.6461 50.7912 25.7861 49.0412 24.5661C48.5712 24.2361 48.0712 24.1161 47.5412 24.3561C46.9412 24.6261 46.7312 25.1261 46.7312 25.7561V32.0261C46.7312 35.0461 46.7412 38.0761 46.7312 41.0961C46.7012 46.8761 42.9312 51.7161 37.3412 53.1961C29.9412 55.1461 22.3812 49.9761 21.6412 42.4561C20.9912 35.8261 25.5612 29.9761 32.2312 28.8961C32.3912 28.8661 32.5612 28.8661 32.7912 28.8461V33.1561C32.7912 33.4461 32.6012 33.4361 32.4012 33.4861C29.2412 34.3061 27.1812 36.2561 26.3912 39.3961C25.1012 44.5461 29.4612 49.5061 34.8212 49.0161C39.0312 48.6361 42.1412 45.2861 42.1412 41.0861V12.8261H46.7912C46.9212 13.3961 47.0012 13.9761 47.1812 14.5361C48.6612 19.1661 51.8212 21.9161 56.6512 22.8161C56.8512 22.8561 57.0412 22.8361 57.0412 23.1361C57.0412 24.5461 57.0412 25.9561 57.0412 27.4761Z" fill="white"/>
</svg>
