<?xml version="1.0" encoding="utf-8"?>
<!-- Generator: Adobe Illustrator 27.3.1, SVG Export Plug-In . SVG Version: 6.00 Build 0)  -->
<svg version="1.1" xmlns="http://www.w3.org/2000/svg" xmlns:xlink="http://www.w3.org/1999/xlink" x="0px" y="0px"
	 viewBox="0 0 595.2 841.9" style="enable-background:new 0 0 595.2 841.9;" xml:space="preserve">
<style type="text/css">
	.st0{display:none;}
	.st1{display:inline;}
	.st2{fill:url(#SVGID_1_);}
	.st3{fill:url(#SVGID_00000101798125858205123020000011097609744613485219_);}
	.st4{fill:#FFFFFF;}
	.st5{fill:url(#SVGID_00000085958816090510013080000017393600871213669786_);}
	.st6{fill:url(#SVGID_00000121973467024348935690000008824058057051395481_);}
	.st7{fill:url(#SVGID_00000117646833078869273710000003428478890671208608_);}
	.st8{fill:url(#SVGID_00000114769286689673261720000010588318768221950593_);}
	.st9{fill:url(#SVGID_00000090993183505658230100000009943336245131244179_);}
</style>
<g id="Capa_1">
</g>
<g id="Capa_2" class="st0">
	<g class="st1">
		
			<linearGradient id="SVGID_1_" gradientUnits="userSpaceOnUse" x1="150.5495" y1="367.4888" x2="150.3019" y2="443.4063" gradientTransform="matrix(1 0 0 1 0 0.11)">
			<stop  offset="0" style="stop-color:#F2970E"/>
			<stop  offset="0.481" style="stop-color:#E63F42"/>
			<stop  offset="1" style="stop-color:#E31E4B"/>
		</linearGradient>
		<path class="st2" d="M184.5,362.7L184.5,362.7c-3.3-1.2-12.6-0.6-34,3.1c-12,2.1-13.8,1.8-22.3,5.5c-0.7,0.3-11.9,5.3-14.9,16.1
			c-4,14.4,8.8,31.5,24.1,36.4c16.3,5.2,30.6-4.8,32.7-6.3C190.9,402.3,191.3,365.2,184.5,362.7z M166.8,397.1l-22.2,12.4
			c-2.4,1.3-5.4-0.4-5.3-3.2l0.3-25.4c0-2.8,3-4.4,5.4-3l21.9,13C169.3,392.3,169.2,395.8,166.8,397.1z"/>
	</g>
</g>
<g id="Capa_3" class="st0">
	<g class="st1">
		
			<linearGradient id="SVGID_00000154404256268280525540000014567289380857788303_" gradientUnits="userSpaceOnUse" x1="247.524" y1="368.9326" x2="248.8403" y2="444.839" gradientTransform="matrix(1 0 0 1 0 0.11)">
			<stop  offset="0" style="stop-color:#F2970E"/>
			<stop  offset="0.481" style="stop-color:#E63F42"/>
			<stop  offset="1" style="stop-color:#E31E4B"/>
		</linearGradient>
		<path style="fill:url(#SVGID_00000154404256268280525540000014567289380857788303_);" d="M281.8,363L281.8,363
			c-3.3-1.2-12.6-0.6-34,3.1c-12,2.1-13.8,1.8-22.3,5.5c-0.7,0.3-11.9,5.3-14.9,16.1c-4,14.4,8.8,31.5,24.1,36.4
			c16.3,5.2,30.6-4.8,32.7-6.3C288.2,402.6,288.6,365.5,281.8,363z"/>
		<path class="st4" d="M247.8,385.4c-4.4,0-7.9,3.6-7.9,7.9c0,4.4,3.6,7.9,7.9,7.9c4.4,0,7.9-3.6,7.9-7.9
			C255.6,388.9,252.1,385.4,247.8,385.4z"/>
		<path class="st4" d="M266.9,383.1c0-1-0.1-2.1-0.5-3c-1.2-3.7-4.5-6-8.5-6c-6.8,0-13.6,0-20.4,0c-1,0-2.1,0.1-3,0.5
			c-3.7,1.2-5.9,4.4-5.9,8.4c0,6.8,0,13.6,0,20.5c0,3,1.2,5.5,3.7,7.3c1.6,1.2,3.4,1.6,5.3,1.6c3.4,0,6.7,0,10.1,0s6.7,0,10.1,0
			c1.1,0,2.1-0.1,3.1-0.5c3.7-1.3,6-4.5,6-8.5C266.9,396.7,267,389.9,266.9,383.1L266.9,383.1z M247.7,405.3c-6.6,0-12-5.5-12-12
			c0.1-6.6,5.4-12,12-12s12,5.4,12,12C259.8,399.9,254.3,405.3,247.7,405.3z M260.3,383.8L260.3,383.8c-1.7,0-3.1-1.4-3-3
			c0-1.7,1.4-3,3-3s3.1,1.4,3,3C263.3,382.5,261.9,383.8,260.3,383.8z"/>
	</g>
</g>
<g id="Capa_4" class="st0">
	<g class="st1">
		
			<linearGradient id="SVGID_00000054228662305315265090000003953486791752350399_" gradientUnits="userSpaceOnUse" x1="348.5232" y1="376.0262" x2="348.4654" y2="451.944" gradientTransform="matrix(1 0 0 1 0 0.11)">
			<stop  offset="0" style="stop-color:#F2970E"/>
			<stop  offset="0.481" style="stop-color:#E63F42"/>
			<stop  offset="1" style="stop-color:#E31E4B"/>
		</linearGradient>
		<path style="fill:url(#SVGID_00000054228662305315265090000003953486791752350399_);" d="M368.1,417.9c-2,1.5-16.4,11.5-32.7,6.3
			c-15.3-4.9-28.1-21.9-24.1-36.4c3-10.8,14.2-15.9,14.9-16.1c8.5-3.6,10.3-3.4,22.3-5.5c21.5-3.7,30.7-4.3,34-3.1l0,0
			C389.4,365.6,388.9,402.7,368.1,417.9z"/>
		<path class="st4" d="M368.8,380.3L368.8,380.3c-4.8-0.2-8.5-3.9-8.6-8.6c0-1-0.5-1.5-1.6-1.5c-2.3,0-4.5,0-6.8,0
			c-1.2,0-1.7,0.5-1.7,1.7c0,9.7,0,19.4,0,29.1c0,0.5,0,1.1-0.2,1.6c-0.7,2.6-3.3,4.2-6,3.7c-2.6-0.5-4.5-2.9-4.3-5.6
			c0.3-2.6,2.4-4.6,5-4.7c1,0,1.5-0.5,1.5-1.5v-0.4c0-2.2,0-4.4,0-6.5c0-1-0.6-1.5-1.5-1.5c-0.5,0-1,0-1.5,0.1
			c-6.3,0.6-11.7,5.4-13.2,11.4c-0.2,0.8-0.3,1.6-0.5,2.5v2.3c0.1,0.8,0.2,1.6,0.4,2.4c1.5,6,6.5,10.6,12.7,11.5
			c0.3,0,0.7,0.1,1,0.2h2.3c0.7-0.1,1.5-0.2,2.2-0.4c6.7-1.4,11.9-7.5,12-14.3c0-4.4,0-8.7,0-13v-0.6c0.2,0.1,0.3,0.1,0.5,0.2
			c2.6,1.3,5.3,1.9,8.1,2c1.1,0,1.7-0.5,1.7-1.6c0-2.2,0-4.4,0-6.6C370.5,380.8,370,380.4,368.8,380.3z M367.7,387.5L367.7,387.5
			c-0.8-0.1-1.5-0.2-2.2-0.4c-2.1-0.5-4-1.3-5.8-2.5c-0.5-0.3-1-0.5-1.5-0.2c-0.6,0.3-0.8,0.8-0.8,1.4c0,2.1,0,4.2,0,6.3
			c0,3,0,6,0,9.1c0,5.8-3.8,10.6-9.4,12.1c-7.4,2-15-3.2-15.7-10.7c-0.6-6.6,3.9-12.5,10.6-13.6c0.2,0,0.3,0,0.6,0
			c0,1.5,0,2.9,0,4.3c0,0.3-0.2,0.3-0.4,0.3c-3.2,0.8-5.2,2.8-6,5.9c-1.3,5.1,3.1,10.1,8.4,9.6c4.2-0.4,7.3-3.7,7.3-7.9
			c0-9.2,0-18.4,0-27.7v-0.6h4.6c0.1,0.6,0.2,1.1,0.4,1.7c1.5,4.6,4.6,7.4,9.5,8.3c0.2,0,0.4,0,0.4,0.3
			C367.7,384.6,367.7,386,367.7,387.5z"/>
	</g>
</g>
<g id="Capa_5" class="st0">
	<g class="st1">
		
			<linearGradient id="SVGID_00000053524572204951830290000015035898282302327998_" gradientUnits="userSpaceOnUse" x1="446.136" y1="378.0146" x2="448.2285" y2="453.9035" gradientTransform="matrix(1 0 0 1 0 0.11)">
			<stop  offset="0" style="stop-color:#F2970E"/>
			<stop  offset="0.481" style="stop-color:#E63F42"/>
			<stop  offset="1" style="stop-color:#E31E4B"/>
		</linearGradient>
		<path style="fill:url(#SVGID_00000053524572204951830290000015035898282302327998_);" d="M480.3,362.3L480.3,362.3
			c-3.3-1.2-12.6-0.6-34,3.1c-12,2.1-13.8,1.8-22.3,5.5c-0.7,0.3-11.9,5.3-14.9,16.1c-4,14.4,8.8,31.5,24.1,36.4
			c16.3,5.2,30.6-4.8,32.7-6.3C486.7,401.9,487.1,364.8,480.3,362.3z M455.6,376.7c-0.2,0.1-0.5,0.2-0.8,0.2c-0.9,0-1.9,0-2.8,0
			c-2.7,0.1-4.9,2.6-4.8,5.3c0.1,1.8,0,3.5,0,5.3c0,0.4,0,0.4,0.4,0.4c2,0,4.1,0,6.1,0c1.1,0,1.3,0.3,1.3,1.3c0,2.1,0,4.2,0,6.3
			c0,0.9-0.3,1.1-1.1,1.1c-2.1,0-4.3,0-6.4,0c-0.2,0-0.3,0-0.3,0.3c0,4.1,0,8.2,0,12.4c0,2.6,0,5.1,0,7.7c0,0.4,0,0.8-0.1,1.1
			c0,0.4-0.2,0.7-0.6,0.8c-0.1,0-0.1,0.1-0.2,0.1c-2.4,0-4.7,0-7,0c0,0-0.1-0.1-0.2-0.1c-0.5-0.1-0.6-0.5-0.6-0.9c0-1.1,0-2.2,0-3.3
			c0-5.9,0-11.8,0-17.7c0-0.1,0-0.2,0-0.3c-0.1,0-0.2,0-0.3,0c-1.4,0-2.8,0-4.2,0c-0.6,0-1-0.3-1-1c0-2.3,0-4.5,0-6.8
			c0-0.6,0.3-0.8,0.9-0.9c0.2,0,0.5,0,0.7,0c1.2,0,2.4,0,3.6,0c0.1,0,0.2,0,0.3,0c0-0.2,0-0.3,0-0.4c0-1.9,0-3.8,0-5.7
			c0.2-4.4,2-8,5.5-10.8c1.9-1.5,4-2.3,6.4-2.6c1.5-0.2,3-0.2,4.4-0.2c0.7,0,1,0.4,1,1c0,1,0,2.1,0,3.1c0,1.2,0,2.3,0,3.5
			C456,376.1,456,376.5,455.6,376.7z"/>
	</g>
</g>
<g id="Capa_6">
	<g>
		
			<linearGradient id="SVGID_00000011736620150210293830000002540747028282428858_" gradientUnits="userSpaceOnUse" x1="150.5676" y1="382.5443" x2="150.3613" y2="319.293" gradientTransform="matrix(1 0 0 -1 0 841.89)">
			<stop  offset="0" style="stop-color:#F2970E"/>
			<stop  offset="0.481" style="stop-color:#E63F42"/>
			<stop  offset="1" style="stop-color:#E31E4B"/>
		</linearGradient>
		<path style="fill:url(#SVGID_00000011736620150210293830000002540747028282428858_);" d="M170.1,514.8
			c-2.1,1.5-16.4,11.5-32.7,6.3c-15.3-4.9-28.1-22-24.1-36.4c3-10.8,14.2-15.8,14.9-16.1c8.5-3.7,10.3-3.4,22.3-5.5
			c21.4-3.7,30.7-4.3,34-3.1C191.3,462.5,190.9,499.6,170.1,514.8z"/>
		<g>
			<path class="st4" d="M131.2,471.4c0.4,0,0.8,0,1.1,0c3.4,0,6.8,0,10.2,0c0.1,0,0.3,0.1,0.4,0.2c1.6,2.3,3.1,4.5,4.7,6.8
				c1.7,2.4,3.3,4.9,5,7.3c0,0,0,0,0.1,0.1c0.4-0.5,0.8-0.9,1.3-1.4c1.4-1.6,2.7-3.1,4.1-4.7c1.2-1.4,2.3-2.8,3.5-4.1
				c1.1-1.3,2.3-2.6,3.4-4c0.1-0.1,0.2-0.2,0.3-0.2c1,0,2.1,0,3.1,0h0.1c-0.1,0.1-0.1,0.2-0.2,0.3c-2.1,2.4-4.2,4.8-6.3,7.3
				c-2,2.3-4.1,4.7-6.1,7c-0.5,0.6-1.1,1.2-1.6,1.9c-0.1,0.1-0.1,0.2,0,0.4c2.1,3.1,4.3,6.2,6.4,9.3c1.6,2.2,3.1,4.5,4.7,6.7
				c1.4,2.1,2.8,4.1,4.3,6.2c0,0,0,0.1,0.1,0.2c-0.1,0-0.2,0-0.3,0c-3.6,0-7.3,0-10.9,0c-0.2,0-0.4-0.1-0.5-0.3
				c-3-4.3-5.9-8.6-8.9-12.9c-0.4-0.6-0.9-1.3-1.4-2c-0.2,0.3-0.4,0.5-0.7,0.8c-2.8,3.3-5.6,6.5-8.5,9.8c-1.3,1.5-2.5,2.9-3.8,4.4
				c-0.1,0.1-0.2,0.2-0.3,0.2c-1.1,0-2.2,0-3.4,0c0-0.1,0.1-0.1,0.1-0.2c1.5-1.7,2.9-3.4,4.4-5c1.9-2.2,3.8-4.4,5.7-6.6
				c1.6-1.8,3.1-3.6,4.6-5.4c0.2-0.2,0.1-0.3,0-0.5c-2.6-3.7-5.1-7.4-7.7-11.1c-2.3-3.4-4.7-6.8-7-10.2
				C131.3,471.5,131.3,471.5,131.2,471.4z M136,474c0.1,0.2,0.2,0.3,0.3,0.4c3.3,4.7,6.6,9.4,9.9,14.2c2.2,3.1,4.4,6.2,6.5,9.3
				c2.3,3.3,4.7,6.6,7,10c0.1,0.2,0.3,0.3,0.5,0.3c1.5,0,3,0,4.5,0c0.1,0,0.2,0,0.3,0c-0.3-0.4-0.6-0.8-0.9-1.2
				c-3.9-5.5-7.8-11.1-11.7-16.6c-2.8-4-5.7-8.1-8.5-12.1c-0.9-1.3-1.9-2.7-2.8-4c-0.1-0.1-0.2-0.2-0.3-0.2
				C139.2,474,137.6,474,136,474z"/>
		</g>
	</g>
</g>
<g id="Capa_7" class="st0">
	<g class="st1">
		
			<linearGradient id="SVGID_00000091737590669095775550000013204808694701328257_" gradientUnits="userSpaceOnUse" x1="247.5233" y1="465.8868" x2="248.8394" y2="541.7932" gradientTransform="matrix(1 0 0 1 0 0.11)">
			<stop  offset="0" style="stop-color:#F2970E"/>
			<stop  offset="0.481" style="stop-color:#E63F42"/>
			<stop  offset="1" style="stop-color:#E31E4B"/>
		</linearGradient>
		<path style="fill:url(#SVGID_00000091737590669095775550000013204808694701328257_);" d="M281.8,460L281.8,460
			c-3.3-1.2-12.6-0.6-34,3.1c-12,2.1-13.8,1.8-22.3,5.5c-0.7,0.3-11.9,5.3-14.9,16.1c-4,14.4,8.8,31.5,24.1,36.4
			c16.3,5.2,30.6-4.8,32.7-6.3C288.2,499.6,288.6,462.5,281.8,460z"/>
		<path class="st4" d="M258.6,484.2c0.5,0,1.1,0,1.6,0c1.4,0.1,2.4,0.7,3,2c0.6,1.4,0.4,2.8-0.6,3.9c-0.8,0.8-1.7,1.4-2.6,2
			c-0.7,0.5-0.8,0.7-0.4,1.5c1.2,2.2,3,3.7,5.2,4.8c0.6,0.3,1.3,0.8,1.7,1.3c0.8,1,0.6,2.4-0.4,3.3c-0.8,0.8-1.9,1.2-3,1.6
			c-0.7,0.2-1.2,0.5-1.5,1.3c-0.3,0.7-0.9,1.3-1.6,1.5c-1,0.2-1.9,0.3-2.9,0.4c-1.4,0.1-2.6,0.5-3.8,1.2c-1.3,0.9-2.7,1.5-4.2,1.8
			c-3,0.6-5.8,0.2-8.4-1.5c-1.7-1.2-3.6-1.6-5.7-1.6c-1.2,0-2.3-0.4-3-1.5c-0.1-0.1-0.2-0.2-0.2-0.3c-0.2-0.8-0.7-1-1.4-1.2
			c-1.2-0.4-2.5-0.9-3.3-1.9c-1-1.3-0.8-2.8,0.5-3.7c0.9-0.6,2-1.1,2.9-1.8c1.5-1,2.6-2.4,3.5-4c0.3-0.5,0.2-0.7-0.3-1
			c-0.7-0.5-1.4-0.9-2-1.4c-1-0.7-1.5-1.7-1.7-2.8c-0.1-0.9,0.4-2.7,1.9-3.4c0.9-0.4,1.8-0.5,2.7-0.3c0.1,0,0.2,0,0.3,0
			c0-0.2,0-0.3,0-0.5c-0.1-2.2,0.2-4.4,1.1-6.5c1-2.2,2.7-3.9,4.9-5c2.7-1.5,5.7-1.7,8.6-1.1c3.8,0.8,6.7,2.9,8.3,6.5
			c0.8,1.9,1,4,1,6.1C258.6,483.9,258.6,484.1,258.6,484.2z M264.8,501.2c0-0.1,0-0.1,0-0.2c-0.4-0.2-0.8-0.5-1.2-0.7
			c-1.8-1-3.5-2.2-4.8-3.8c-0.9-1.2-1.6-2.4-2-3.8c-0.1-0.6,0-1.1,0.5-1.4c0.6-0.4,1.1-0.7,1.7-1.1s1.2-0.9,1.8-1.4
			c0.5-0.4,0.6-1.1,0.3-1.6c-0.3-0.5-0.8-0.8-1.4-0.7c-0.8,0.2-1.7,0.5-2.5,0.7c-0.3,0.1-0.6,0.1-0.9,0.2c0-0.2,0-0.3,0-0.4
			c0-1.8,0.1-3.5,0-5.3c-0.2-3.4-1.9-5.9-5-7.4c-3-1.5-6.1-1.4-9.1-0.1c-2.6,1.2-4.3,3.1-5,5.9c-0.5,2.2-0.4,4.4-0.2,6.6
			c0.1,0.7-0.1,0.9-0.7,0.6c-0.3-0.1-0.7-0.3-1-0.4c-0.5-0.2-1-0.3-1.6-0.4c-0.7-0.1-1.3,0.2-1.5,0.7s0,1.2,0.5,1.7
			c0.3,0.3,0.7,0.6,1,0.8c0.7,0.5,1.5,1,2.3,1.5c0.5,0.4,0.8,0.9,0.6,1.5c-0.2,0.7-0.4,1.4-0.8,2c-1.2,2.4-3.2,4.1-5.6,5.4
			c-0.4,0.2-0.8,0.4-1.2,0.7c-0.4,0.3-0.4,0.5,0,0.8c0.3,0.3,0.7,0.5,1.1,0.6c0.8,0.3,1.6,0.5,2.4,0.8c0.7,0.2,1.1,0.7,1.2,1.4
			c0.1,0.8,0.3,0.9,1.1,1c0.2,0,0.4,0,0.5,0c1.3,0.2,2.6,0.2,3.9,0.6c1,0.3,2,0.9,2.9,1.5c2,1.2,4.2,1.4,6.5,1.1
			c1.2-0.2,2.3-0.8,3.4-1.4c1.4-0.9,2.8-1.5,4.4-1.6c0.9-0.1,1.8-0.1,2.7-0.2c0.4,0,0.7-0.3,0.7-0.8c0-0.9,0.4-1.4,1.3-1.7
			c0.9-0.3,1.8-0.6,2.7-1C264.1,501.8,264.4,501.5,264.8,501.2z"/>
	</g>
</g>
<g id="Capa_8" class="st0">
	<g class="st1">
		
			<linearGradient id="SVGID_00000061448868394445167930000005972246767787715505_" gradientUnits="userSpaceOnUse" x1="349.8238" y1="467.0192" x2="351.14" y2="542.9256" gradientTransform="matrix(1 0 0 1 0 0.11)">
			<stop  offset="0" style="stop-color:#F2970E"/>
			<stop  offset="0.481" style="stop-color:#E63F42"/>
			<stop  offset="1" style="stop-color:#E31E4B"/>
		</linearGradient>
		<path style="fill:url(#SVGID_00000061448868394445167930000005972246767787715505_);" d="M384.1,461.1L384.1,461.1
			c-3.3-1.2-12.6-0.6-34,3.1c-12,2.1-13.8,1.8-22.3,5.5c-0.7,0.3-11.9,5.3-14.9,16.1c-4,14.4,8.8,31.5,24.1,36.4
			c16.3,5.2,30.6-4.8,32.7-6.3C390.5,500.7,390.9,463.6,384.1,461.1z"/>
		<path class="st4" d="M346.6,514.1c0.2,0,0.4,0,0.7,0c0.2,0,0.4,0,0.6,0c0,0,0,0,0-0.1c-0.4,0-0.7-0.1-1.1-0.1
			c-1.2,0-2.3-0.2-3.5-0.5c-2.9-0.7-5.4-2-7.5-4c-1.9-1.8-3.2-3.9-4.1-6.3c-0.8-2.1-1.3-4.3-1.6-6.5c-0.1-1.5-0.3-3-0.3-4.5
			c0-1.3,0.2-2.7,0.3-4c0.2-1.9,0.6-3.7,1.3-5.5c0.8-2.4,2-4.5,3.8-6.3c2-2.1,4.4-3.6,7.1-4.4c1.7-0.5,3.4-0.7,5.1-0.9
			c1.5-0.1,3,0,4.5,0.2c2.9,0.4,5.5,1.2,8,2.8c2.2,1.5,3.9,3.4,5.2,5.6c0.9,1.5,1.5,3.1,2,4.7c0,0.1,0.1,0.2-0.1,0.2
			c-1.1,0.3-2.3,0.6-3.4,0.9c-0.1-0.2-0.1-0.3-0.2-0.5c-0.5-1.5-1.1-3-2-4.3c-1.7-2.5-3.9-4.2-6.8-5.1c-1.6-0.5-3.2-0.8-4.9-0.8
			c-1.2,0-2.3,0-3.5,0.1c-3,0.3-5.8,1.4-8,3.6c-1.1,1.1-2,2.4-2.7,3.9c-1,2-1.5,4.1-1.7,6.3c-0.2,1.8-0.3,3.6-0.2,5.4
			c0.1,2.7,0.5,5.4,1.6,8c1,2.4,2.5,4.5,4.7,6c1.5,1,3.2,1.7,5,2c1.6,0.3,3.2,0.4,4.7,0.3c1.5,0,3-0.2,4.4-0.6
			c2.6-0.8,4.8-2.3,6.3-4.6c0.8-1.2,1.2-2.6,1.2-4.1s-0.3-2.8-1.1-4c-0.5-0.8-1.2-1.4-2-1.9c-0.1-0.1-0.2-0.2-0.4-0.3
			c-0.1,0.6-0.2,1.2-0.4,1.7c-0.4,1.7-1.1,3.3-2.3,4.6c-1.3,1.4-2.8,2.2-4.6,2.5c-2.3,0.4-4.5,0.2-6.6-0.9c-1.9-1-3.3-2.6-3.6-4.8
			c-0.5-3,0.6-5.6,3.4-7.3c1.2-0.7,2.6-1.1,4-1.3c1.8-0.2,3.7-0.2,5.5,0c0.3,0,0.7,0.1,1,0.1c-0.2-1.1-0.6-2.2-1.3-3.1
			c-0.7-0.9-1.6-1.3-2.7-1.6c-1.4-0.3-2.7-0.2-4,0.2c-1,0.4-1.8,1-2.4,1.8c0,0-0.1,0.1-0.1,0.2c-0.1-0.1-0.2-0.2-0.4-0.2
			c-0.9-0.6-1.7-1.2-2.6-1.7c-0.1-0.1-0.1-0.1,0-0.3c1.5-2.1,3.6-3.4,6.2-3.7c1.7-0.2,3.5-0.1,5.1,0.4c2.4,0.8,4,2.5,4.9,4.8
			c0.5,1.2,0.8,2.5,0.9,3.8c0,0.4,0.2,0.6,0.5,0.8c2.1,1,3.8,2.4,5.1,4.3c0.7,1.2,1.2,2.4,1.4,3.8c0.2,1.4,0.2,2.9-0.1,4.3
			c-0.4,1.7-1.1,3.2-2.1,4.6c-2.3,3-5.4,4.8-9,5.6c-1.1,0.2-2.3,0.4-3.5,0.4c-0.1,0-0.2,0-0.3,0l0,0c0.2,0,0.4,0,0.7,0.1
			C349.4,514.1,348,514.1,346.6,514.1z M350.7,493c-0.7,0-1.3,0.1-2,0.1c-1,0.1-2,0.4-2.9,0.9c-1.5,1-1.9,2.5-1.2,4
			c0.5,1,1.3,1.5,2.3,1.8s2.1,0.3,3.2,0.2c1.6-0.2,2.8-1,3.5-2.4c0.7-1.3,0.9-2.6,1.1-4.1c0,0-0.1-0.1-0.1-0.2
			C353.2,493.2,351.9,493,350.7,493z"/>
	</g>
</g>
</svg>
