<svg width="76" height="64" viewBox="0 0 76 64" fill="none" xmlns="http://www.w3.org/2000/svg">
<path d="M57.511 55.956C55.461 57.446 41.101 67.506 24.831 62.276C9.551 57.376 -3.239 40.346 0.730996 25.926C3.711 15.076 14.981 10.066 15.641 9.78603C24.131 6.15603 25.961 6.38604 37.951 4.32604C59.401 0.646042 68.651 0.0160354 71.981 1.22604H71.971C78.811 3.71604 78.381 40.836 57.511 55.956Z" fill="#EF7C1A"/>
<path d="M53.871 29.436L32.021 16.4461C29.661 15.0361 26.661 16.716 26.631 19.466L26.311 44.8861C26.271 47.6361 29.221 49.3861 31.621 48.0461L53.791 35.6161C56.191 34.2761 56.231 30.836 53.871 29.436Z" fill="white"/>
</svg>
